<svg xmlns="http://www.w3.org/2000/svg" width="327.973" height="301.777" viewBox="0 0 327.973 301.777"><defs><style>.a{opacity:0.5;}.b{fill:#949693;}.c,.d{fill:none;stroke:#949693;}.c{stroke-width:4px;}.d{stroke-width:3px;}</style></defs><g class="a" transform="translate(100.276 0.063)"><path class="b" d="M5661.322,1847.756l148-148.251v13.972l-134.435,134.279Z" transform="translate(-5583.27 -1546.043)"/><line class="c" y1="107.2" x2="107.499" transform="translate(118.786 193.014)"/><line class="d" y1="167.052" x2="167.5" transform="translate(58.786 133.161)"/><path class="d" d="M-100,215.556,116.253,0" transform="translate(110.034 84.908)"/><line class="d" y1="160.905" x2="160.437" transform="translate(-15.214 139.309)"/><line class="d" y1="160.905" x2="161.367" transform="translate(-43.214 139.309)"/><line class="d" y1="140.026" x2="140.632" transform="translate(-73.214 160.188)"/><line class="d" y1="129.818" x2="129.586" transform="translate(-99.214 170.395)"/><line class="d" y1="65.073" x2="65.421" transform="translate(160.866 1)"/><line class="d" y1="47.905" x2="48.048" transform="translate(178.238 58.461)"/><line class="d" y1="75.744" x2="76.119" transform="translate(150.167 30.622)"/><line class="d" y1="54.354" x2="54.498" transform="translate(171.788 110.426)"/><line class="d" y1="116.827" x2="116.861" transform="translate(36.786 183.386)"/></g></svg>