<svg xmlns="http://www.w3.org/2000/svg" width="500" height="305.663" viewBox="0 0 500 305.663"><path d="M339.48,246.824l-11.287-11.761a12.19,12.19,0,0,1-1.422-14.232c14.144-21.6,33.761-51.722,33.761-51.722v-.032l2.528-3.792c5.41-8.285,4.1-21.425-2.945-29.489l-9.145-10.485c-3.482-3.994-7.856-6.25-12.317-6.352a13.579,13.579,0,0,0-11.439,5.979L288.03,179.448a7.54,7.54,0,0,1-5.878,3.3,8.418,8.418,0,0,1-6.472-2.787l-13.7-14.251c-3.887-4.057-4.424-10.782-1.264-14.953l41.37-54a21.259,21.259,0,0,0,3.836-15.016,27.536,27.536,0,0,0-6.6-15.56L289.212,54.617a20.881,20.881,0,0,0-13.664-7.533,14.751,14.751,0,0,0-12.943,5.22l-4.753,5.612-12.134,14.27-28.225,33.18c-3.476,4.1-9.733,3.918-13.948-.455L189.724,90.52a12.8,12.8,0,0,1-3.539-7.931A10.112,10.112,0,0,1,188.593,75L235.1,23.927,251.4,6.017A27.265,27.265,0,0,1,259.3,0c-.088.051-.2.076-.291.133a17.576,17.576,0,0,0-2.357,1.34H256.6a.335.335,0,0,1-.063.038C246.135,8.7,194.489,44.2,178.348,55.3a23.894,23.894,0,0,0-2.022,1.529,25.513,25.513,0,0,0-3.969,3.381L158.39,74.992l-39.1,41.294a7.938,7.938,0,0,0-2.073,5.941,9.189,9.189,0,0,0,2.793,6.036l11.085,10.788a8.127,8.127,0,0,0,9.208,1.738c2-.79,11.673-5.1,23.466-10.4l-28.212,31.8c-12.64,14.245-11.281,37.174,3.09,50.471l30.569,28.383A29.95,29.95,0,0,0,186.842,249c.562.07,2.484.133,2.762.133H343.114c.727,0,1.39,0,2-.038a6.952,6.952,0,0,1-5.631-2.288m-20.287-34.323-13.841,20.755c-5.979,8.955-14.687,14.536-24.648,15.673-10.112,1.125-20.186-2.566-28.256-10.466L214.39,201.119c-18.012-17.664-20.18-47.785-4.942-66.081l44.663-53.624,16.628-19.971a6.7,6.7,0,0,1,5.846-2.421,9.48,9.48,0,0,1,6.263,3.375l10.226,11.61a12.639,12.639,0,0,1,3.04,7.135A9.72,9.72,0,0,1,294.337,88l-42.173,53.827c-7.2,9.189-5.985,24.167,2.718,33.123l13.9,14.3a18.657,18.657,0,0,0,14.378,6.042,16.592,16.592,0,0,0,12.823-7.413l38.551-54.648a6.168,6.168,0,0,1,5.163-2.768,7.748,7.748,0,0,1,5.644,2.838l9.259,10.523c3.248,3.691,3.855,9.726,1.34,13.5l-36.655,55.04a1.436,1.436,0,0,1-.07.139M32.187,294.818c0,2.6,0,2.6-2.054,2.907-1.043.145-6.269.379-9.417.379-3.95,0-7.988-.126-9.9-.341S8.8,297.219,8.614,296.1c-.164-1.3-.449-5.915-.449-8.33,0-6.187.878-7.186.91-7.23.487-.348,2.7-.929,12.071-.929,7.255,0,9.423.556,9.878.7.765.3.948.36.98,2.579v3h7.868l-.032-2.022c-.082-4.93-.221-6.75-2.275-8.69-2.5-2.4-5.979-3.059-16.249-3.059-2.528,0-6.668.089-8.639.221-4.563.259-6.952.632-9,2.155C.581,276.856,0,281.514,0,289.3s.8,11.344,3.065,13.423c2.692,2.477,6.668,2.857,18.909,2.857,9.594,0,13.209-.373,15.692-2.585,2.142-1.959,2.326-3.956,2.528-9.429l.082-2.073H32.307Zm47.444-13.487a53.086,53.086,0,0,1,.423,7.723,49.086,49.086,0,0,1-.461,7.053c-.209.98-.537,1.264-1.548,1.447a79.512,79.512,0,0,1-10.63.55c-1.984,0-7.142-.126-8.778-.221-2.673-.171-3.861-.392-4.228-.739-.512-.556-.771-3.47-.771-8.7,0-6.465.7-7.653.916-7.875,1.106-.954,8.405-.954,10.813-.954,7.824,0,10.15.076,12.431.411,1.656.24,1.744.777,1.833,1.308m5.492-6.32c-2.648-2.49-6.642-2.907-17.342-2.907-2.724,0-8.134.133-10.042.221-4.1.259-6.32.632-8.469,2.142-3.236,2.376-3.83,6.661-3.83,14.251,0,5.056.209,7.849.746,9.872a8.538,8.538,0,0,0,6.611,6.244c2.465.5,7.666.733,16.35.733,10.232,0,13.847-.632,16.173-2.97,2.18-2.206,2.951-5.789,2.951-13.651,0-2.326-.152-5.372-.335-6.9-.322-3.065-.923-5.315-2.812-7.04m17.506,4.6h15.212c3.375,0,4.67,0,5.549.07,2.831.19,3.52.714,3.918,1.144s1.409,2.143,1.409,7.83c0,8.393-2.06,8.848-3.16,9.107-1.5.335-1.517.341-7.489.341h-15.44Zm15.3-7.4H94.5v33.281h23.75c8.848,0,11.825-.379,14.687-2.9s3.975-6.592,3.975-13.752c0-6.585-.506-10.434-3.274-13.234-2.958-2.958-6.175-3.394-15.711-3.394m33.224,19.8h25.153v-7.4H151.153v-5h26.278v-7.4h-34.4v33.281h34.437V298.1H151.153Zm58.756,3.5-15.793-23.3H182.772v33.281H190.9V281.609L207.2,305.492h5.448l16.015-23.712v23.712h8.121V272.211H225.406Zm47.557-3.609,7.11-11.812,7.04,11.812Zm2.585-19.693-19.99,33.281H249.4l3.691-6.181H275.94l3.678,6.181h9.24l-19.939-33.281Zm57.461,13.051-10.567-.038a36.933,36.933,0,0,1-7.015-.55c-1.087-.3-1.182-.322-1.182-2.206s0-3.034,12.134-3.034c5.119,0,7.129.461,7.761.632,1.194.379,1.194.379,1.194,2.812l8.127-.032c-.057-3.861-.544-6.181-3.116-8.1s-6.276-2.642-13.777-2.642c-2.825,0-7.179.164-9.676.455-3.495.386-5.65.879-7.767,2.528-1.416,1.087-3.1,3.242-3.1,7.331,0,8.955,6.686,10.162,13.215,10.162,14.618,0,14.915,0,16.122.392.48.145.853.278.853,2.326s-.828,2.288-1.422,2.414a58.04,58.04,0,0,1-9.537.632c-8.14,0-10.055-.379-10.883-.683a10.952,10.952,0,0,1-.265-3.261l-7.969-.19c-.063.632-.07,1.4-.07,1.5,0,3.64.632,6.282,3.842,8.216,2.326,1.327,5.163,1.713,12.69,1.713,9.72,0,14.327-.449,17.064-1.694,3.16-1.529,4.753-4.424,4.753-8.9a9.8,9.8,0,0,0-1.738-6.225c-2.117-2.913-5.29-3.508-9.688-3.508m15.136-5.694h15.61v25.88h8.134v-25.88h15.5v-7.4H332.636v7.4Zm52.354,12.4h25.172v-7.4H384.99v-5h26.278v-7.4H376.875v33.281h34.437V298.1H384.99Zm39.759-12.4H437.97c6.674,0,8.715.145,9.537.7a4.393,4.393,0,0,1,.588,2.68,9.193,9.193,0,0,1-.386,2.85c-.373.632-2.275.967-6,.967H424.749Zm30.336-2.768a8.639,8.639,0,0,0-6.851-4.266c-2.244-.284-2.4-.284-10.276-.366H416.615v33.281h8.134V294.211H437.97c6.566.038,6.566.038,7.913.246,1.195.158,1.492.676,1.605,1.593a24.9,24.9,0,0,1,.152,4.645v4.8h8.14V299.33c0-4.759-.1-6.554-1.9-8.387,1.991-1.643,2.452-4.209,2.452-7.912a12.834,12.834,0,0,0-1.22-6.187m43.19,11.919c-2.13-2.9-5.29-3.5-9.7-3.5l-10.561-.044a34.945,34.945,0,0,1-7.015-.543c-1.1-.3-1.182-.329-1.182-2.212,0-2.01,0-3.027,12.128-3.027,4.929,0,6.952.411,7.755.632,1.22.379,1.22.379,1.22,2.806h8.115c-.07-3.868-.562-6.2-3.122-8.1s-6.269-2.642-13.79-2.642c-2.8,0-7.173.158-9.669.455-3.5.385-5.688.891-7.748,2.528-1.422,1.081-3.1,3.242-3.1,7.325,0,8.911,6.674,10.175,13.215,10.175,14.612,0,14.909,0,16.129.386.468.145.847.291.847,2.326s-.828,2.294-1.416,2.421a59.466,59.466,0,0,1-9.537.632c-8.153,0-10.074-.379-10.877-.683a10.349,10.349,0,0,1-.278-3.261l-7.982.038c-.051.6-.057,1.176-.057,1.264,0,3.647.632,6.282,3.849,8.216,2.275,1.308,5.239,1.713,12.64,1.713,9.739,0,14.346-.442,17.064-1.694,3.211-1.542,4.772-4.456,4.772-8.9a9.92,9.92,0,0,0-1.732-6.231"/></svg>