<svg xmlns="http://www.w3.org/2000/svg" width="126.787" height="126.787" viewBox="0 0 126.787 126.787"><defs><style>.a{fill:#fff;}</style></defs><g transform="translate(-420 -1188.326)"><g transform="translate(420 1188.326)"><circle cx="63.394" cy="63.394" r="63.394"/><path class="a" d="M210.517,313.5H188.322l5.088-7.955H207.2l5.035-7.926H181.471l-5.012,7.926h7.383l-10.054,15.886h41.325l15.7-24.922,5.677,9.024h-4.9l-5.007,7.966h14.933l5.024,7.932h9.528l-25.258-39.988Zm-19.032-31.761-5,7.926,32.63-.012,5-7.914Z" transform="translate(-151.707 -252.801)"/><path class="a" d="M828.816,632.8v.283h.653v1.387h.324v-1.387h.653V632.8Z" transform="translate(-723.548 -559.542)"/><path class="a" d="M846.237,632.8l-.642.994-.653-.994h-.283v1.665h.283v-1.029l-.029-.179.1.168.532.838h.058l.532-.827.075-.179v1.208h.289V632.8Z" transform="translate(-737.379 -559.542)"/><path class="a" d="M181.787,641.893a3.613,3.613,0,0,1-3.636,3.659h-4.284a3.522,3.522,0,0,1-2.578-1.029,3.485,3.485,0,0,1-1.023-2.567v-1.7h2.642l.4,1.572a1.241,1.241,0,0,0,1.341.988h2.914a1.147,1.147,0,0,0,.89-.393,1.58,1.58,0,0,0,.33-1.017v-1.873c0-.913-.4-1.387-1.22-1.387H173.9a3.568,3.568,0,0,1-2.573-1.046,3.647,3.647,0,0,1-1.064-2.613v-2.463a3.558,3.558,0,0,1,1.064-2.561A3.515,3.515,0,0,1,173.9,628.4h4.249a3.548,3.548,0,0,1,2.555,1.012,3.42,3.42,0,0,1,1.029,2.567v1.538H179.11l-.393-1.393a1.287,1.287,0,0,0-1.335-.994h-2.868a1.107,1.107,0,0,0-.9.411,1.456,1.456,0,0,0-.335,1.012V634c0,.9.41,1.347,1.237,1.347h3.636a3.431,3.431,0,0,1,2.561,1.087,3.478,3.478,0,0,1,1.075,2.561Z" transform="translate(-148.632 -555.699)"/><path class="a" d="M300.432,635.628a3.526,3.526,0,0,1-1.081,2.573,3.568,3.568,0,0,1-2.6,1.075h-4.717v6.29H289V628.413h7.753a3.6,3.6,0,0,1,2.6,1.064,3.484,3.484,0,0,1,1.081,2.549Zm-4.272-4.446h-4.122V636.5h4.122l.879-.4a1.5,1.5,0,0,0,.335-1.018v-2.5a1.489,1.489,0,0,0-.335-1.006Z" transform="translate(-252.289 -555.71)"/><path class="a" d="M531.068,645.571l-2.786-6.706H525.4v6.706h-3.041V628.418h7.591a3.632,3.632,0,0,1,3.648,3.613v2.989a3.663,3.663,0,0,1-.642,2.1,3.826,3.826,0,0,1-1.682,1.353l3.018,7.093Zm-1.688-14.383H525.4v4.9h3.977l.838-.382a1.441,1.441,0,0,0,.335-1.006v-2.116a1.5,1.5,0,0,0-.335-1.006Z" transform="translate(-456.012 -555.715)"/><path class="a" d="M637.647,631.2h-4.4v14.383h-3.029V631.2h-4.371v-2.763h11.8Z" transform="translate(-546.356 -555.73)"/><path class="a" d="M747.667,641.893a3.613,3.613,0,0,1-3.654,3.659h-4.284a3.545,3.545,0,0,1-2.573-1.029,3.489,3.489,0,0,1-1.029-2.567v-1.7h2.648l.393,1.572a1.264,1.264,0,0,0,1.353.988h2.914a1.168,1.168,0,0,0,.9-.393,1.571,1.571,0,0,0,.312-1.017v-1.873c0-.913-.393-1.387-1.208-1.387h-3.654A3.534,3.534,0,0,1,737.2,637.1a3.634,3.634,0,0,1-1.075-2.613v-2.463a3.545,3.545,0,0,1,1.075-2.561,3.482,3.482,0,0,1,2.578-1.064h4.232a3.542,3.542,0,0,1,2.561,1.012,3.474,3.474,0,0,1,1.041,2.567v1.538h-2.631l-.4-1.393a1.277,1.277,0,0,0-1.33-.994h-2.879a1.077,1.077,0,0,0-.89.411,1.456,1.456,0,0,0-.335,1.012V634c0,.9.41,1.347,1.226,1.347h3.642a3.723,3.723,0,0,1,3.654,3.648Z" transform="translate(-642.631 -555.699)"/><path class="a" d="M410.5,631.2h-2.914l-.89.4a1.605,1.605,0,0,0-.324,1.012V641.4a1.583,1.583,0,0,0,.324,1l.89.428H410.5l.879-.428a1.473,1.473,0,0,0,.347-1V632.61a1.493,1.493,0,0,0-.347-1.012Zm4.249,10.7a3.548,3.548,0,0,1-1.064,2.619,3.6,3.6,0,0,1-2.6,1.064h-4.1a3.652,3.652,0,0,1-3.665-3.683v-9.862a3.642,3.642,0,0,1,3.665-3.6h4.1a3.586,3.586,0,0,1,2.6,1.046,3.461,3.461,0,0,1,1.064,2.555Z" transform="translate(-352.093 -555.73)"/></g></g></svg>