<svg xmlns="http://www.w3.org/2000/svg" width="44" height="44" viewBox="0 0 44 44"><g fill="none" stroke="#000" stroke-width="1"><circle cx="22" cy="22" r="22" stroke="none"/><circle cx="22" cy="22" r="21.5" fill="none"/></g><path d="M186.676,292.688h-7.788l1.785-2.791h4.838l1.767-2.781H176.484l-1.759,2.781h2.591l-3.528,5.575h14.5l5.508-8.745,1.992,3.167h-1.718l-1.757,2.8h5.24l1.763,2.783h3.343L193.8,281.439ZM180,281.542l-1.753,2.781,11.45,0,1.755-2.777Z" transform="translate(-166.187 -271.537)"/><path d="M828.816,632.8v.1h.229v.487h.114V632.9h.229v-.1Z" transform="translate(-792.024 -607.242)"/><path d="M845.212,632.8l-.225.349-.229-.349h-.1v.584h.1v-.361l-.01-.063.034.059.187.294h.02l.187-.29.026-.063v.424h.1V632.8Z" transform="translate(-807.16 -607.242)"/><path d="M174.308,633.135a1.268,1.268,0,0,1-1.276,1.284h-1.5a1.236,1.236,0,0,1-.9-.361,1.223,1.223,0,0,1-.359-.9v-.6h.927l.142.552a.435.435,0,0,0,.471.347h1.022a.4.4,0,0,0,.312-.138.555.555,0,0,0,.116-.357v-.657c0-.321-.14-.487-.428-.487h-1.286a1.252,1.252,0,0,1-.9-.367,1.28,1.28,0,0,1-.373-.917v-.864a1.248,1.248,0,0,1,.373-.9,1.233,1.233,0,0,1,.9-.373h1.491a1.245,1.245,0,0,1,.9.355,1.2,1.2,0,0,1,.361.9v.54h-.921l-.138-.489a.452.452,0,0,0-.469-.349h-1.006a.389.389,0,0,0-.316.144.511.511,0,0,0-.118.355v.507c0,.314.144.473.434.473h1.276a1.2,1.2,0,0,1,.9.381,1.22,1.22,0,0,1,.377.9Z" transform="translate(-162.821 -603.036)"/><path d="M293.013,630.945a1.237,1.237,0,0,1-.379.9,1.252,1.252,0,0,1-.911.377h-1.655v2.207H289v-6.019h2.72a1.265,1.265,0,0,1,.911.373,1.222,1.222,0,0,1,.379.895Zm-1.5-1.56h-1.446v1.866h1.446l.308-.14a.527.527,0,0,0,.118-.357v-.876a.523.523,0,0,0-.118-.353Z" transform="translate(-276.267 -603.049)"/><path d="M525.416,634.437l-.978-2.353h-1.01v2.353h-1.067v-6.019h2.664a1.274,1.274,0,0,1,1.28,1.268v1.049a1.285,1.285,0,0,1-.225.738,1.342,1.342,0,0,1-.59.475l1.059,2.489Zm-.592-5.047h-1.4v1.72h1.4l.294-.134a.506.506,0,0,0,.118-.353v-.742a.527.527,0,0,0-.118-.353Z" transform="translate(-499.226 -603.053)"/><path d="M629.988,629.406h-1.544v5.047h-1.063v-5.047h-1.534v-.97h4.141Z" transform="translate(-598.101 -603.071)"/><path d="M740.177,633.135a1.268,1.268,0,0,1-1.282,1.284h-1.5a1.244,1.244,0,0,1-.9-.361,1.225,1.225,0,0,1-.361-.9v-.6h.929l.138.552a.444.444,0,0,0,.475.347h1.023a.41.41,0,0,0,.314-.138.551.551,0,0,0,.11-.357v-.657c0-.321-.138-.487-.424-.487h-1.282a1.24,1.24,0,0,1-.9-.367,1.275,1.275,0,0,1-.377-.917v-.864a1.244,1.244,0,0,1,.377-.9,1.222,1.222,0,0,1,.9-.373h1.485a1.243,1.243,0,0,1,.9.355,1.219,1.219,0,0,1,.365.9v.54h-.923l-.142-.489a.448.448,0,0,0-.467-.349h-1.01a.378.378,0,0,0-.312.144.511.511,0,0,0-.118.355v.507c0,.314.144.473.43.473h1.278a1.306,1.306,0,0,1,1.282,1.28Z" transform="translate(-703.466 -603.036)"/><path d="M405.843,629.406h-1.022l-.312.14a.563.563,0,0,0-.114.355v3.083a.555.555,0,0,0,.114.351l.312.15h1.022l.308-.15a.517.517,0,0,0,.122-.351V629.9a.524.524,0,0,0-.122-.355Zm1.491,3.755a1.245,1.245,0,0,1-.373.919,1.264,1.264,0,0,1-.913.373H404.61a1.282,1.282,0,0,1-1.286-1.292V629.7a1.278,1.278,0,0,1,1.286-1.264h1.438a1.258,1.258,0,0,1,.913.367,1.215,1.215,0,0,1,.373.9Z" transform="translate(-385.494 -603.071)"/></svg>