<svg xmlns="http://www.w3.org/2000/svg" viewBox="0 0 242.68 242.68"><defs><style>.b7a63dda-25f3-4612-ba8f-50753eb45a93{fill:#282522;}.bfba87c8-9009-483c-9904-245a6c4549bc{fill:#f8f9fa;}</style></defs><g id="b31f50e8-6c06-4923-ac9f-369aa768bc29" data-name="Layer 2"><g id="ad24cfa0-79c7-4602-82d5-59f13f46d0a6" data-name="Layer 1"><circle class="b7a63dda-25f3-4612-ba8f-50753eb45a93" cx="121.34" cy="121.34" r="121.34"/><path id="f177237d-53d0-4861-9c44-23aca2fa224b" data-name="SVGID" class="bfba87c8-9009-483c-9904-245a6c4549bc" d="M201.15,140.88h3.09v.54H203v2.63h-.63v-2.63h-1.23ZM56.42,153.07h-7c-1.58,0-2.35-.87-2.35-2.58v-2.76a2.75,2.75,0,0,1,.65-1.94,2,2,0,0,1,1.7-.77h5.48a2.46,2.46,0,0,1,2.56,1.89l.76,2.67h5v-2.94a6.56,6.56,0,0,0-2-4.89,6.75,6.75,0,0,0-4.87-1.95H48.3a6.78,6.78,0,0,0-4.95,2,6.69,6.69,0,0,0-2,4.88v4.73a6.91,6.91,0,0,0,7,7h7c1.55,0,2.32.9,2.32,2.66v3.58a3,3,0,0,1-.62,1.92,2.12,2.12,0,0,1-1.7.77H49.73a2.41,2.41,0,0,1-2.6-1.88l-.74-3H41.33v3.26a6.7,6.7,0,0,0,6.86,6.86h8.23a6.91,6.91,0,0,0,6.92-7V160a6.7,6.7,0,0,0-2-4.9A6.59,6.59,0,0,0,56.42,153.07Zm33.5-11.23a6.66,6.66,0,0,1,2,4.86v6.89a6.77,6.77,0,0,1-2,4.92,6.91,6.91,0,0,1-5,2h-9v12H70.13V139.8H85A6.83,6.83,0,0,1,89.92,141.84Zm-3.77,5.94a2.86,2.86,0,0,0-.66-1.93,2.1,2.1,0,0,0-1.67-.76h-7.9v10.17h7.9a2.13,2.13,0,0,0,1.67-.76,2.92,2.92,0,0,0,.66-1.94ZM143.82,159l5.75,13.54h-6.16l-5.34-12.82h-5.5v12.82h-5.79V139.8h14.48a7,7,0,0,1,7,6.9v5.72a7,7,0,0,1-1.23,4A7.64,7.64,0,0,1,143.82,159Zm-1.4-11.25a2.92,2.92,0,0,0-.62-1.93,2,2,0,0,0-1.64-.76h-7.59v9.38h7.59a2.08,2.08,0,0,0,1.64-.73,2.88,2.88,0,0,0,.62-1.92Zm9.47-2.69h8.33v27.48H166V145.09h8.41V139.8H151.89Zm41.83,8h-7c-1.54,0-2.33-.87-2.33-2.58v-2.76a2.94,2.94,0,0,1,.63-1.94,2.07,2.07,0,0,1,1.7-.77h5.5a2.47,2.47,0,0,1,2.56,1.89l.76,2.67h5v-2.94a6.62,6.62,0,0,0-2-4.89,6.73,6.73,0,0,0-4.89-1.95h-8.1a7,7,0,0,0-7,6.92v4.73a6.8,6.8,0,0,0,2,4.94,6.61,6.61,0,0,0,4.92,2h7c1.57,0,2.33.9,2.33,2.66v3.58a2.91,2.91,0,0,1-.62,1.92,2.09,2.09,0,0,1-1.71.77h-5.55a2.43,2.43,0,0,1-2.6-1.88l-.75-3h-5v3.26a6.6,6.6,0,0,0,2,4.9,6.67,6.67,0,0,0,4.9,2h8.2a6.95,6.95,0,0,0,7-7V160a7.11,7.11,0,0,0-7-7ZM208,140.88l-1.25,1.91-1.24-1.91H205v3.17h.53v-2c0-.11-.06-.22-.06-.35a3,3,0,0,0,.19.32l1,1.58h.1l1-1.55a1.84,1.84,0,0,0,.15-.35,2.51,2.51,0,0,0,0,.35v2h.58v-3.17Zm-90.35.94a6.48,6.48,0,0,1,2,4.88v18.84a6.59,6.59,0,0,1-2,5,6.67,6.67,0,0,1-4.94,2h-7.83a7,7,0,0,1-7-7V146.7a6.61,6.61,0,0,1,2.05-4.86,6.71,6.71,0,0,1,5-2h7.83A6.72,6.72,0,0,1,117.66,141.82Zm-3.73,6a2.75,2.75,0,0,0-.67-1.93,2.06,2.06,0,0,0-1.66-.76h-5.55a2.13,2.13,0,0,0-1.72.76,2.92,2.92,0,0,0-.62,1.93v16.8a2.9,2.9,0,0,0,.62,1.91,2.1,2.1,0,0,0,1.72.8h5.55a2,2,0,0,0,1.66-.8,2.74,2.74,0,0,0,.67-1.91Zm24.44-91.62H76L66.45,71.32l62.36,0ZM162,101.63h-9.35l-9.6,15.2h28.54L181.17,132h18.21L151.12,55.63l-38.77,61.21H70l9.73-15.18H106l9.6-15.17H56.87l-9.6,15.17H61.38L42.16,132l79,0,30-47.59Z"/></g></g></svg>