<?xml version="1.0" encoding="utf-8"?>
<!-- Generator: Adobe Illustrator 23.1.0, SVG Export Plug-In . SVG Version: 6.00 Build 0)  -->
<svg version="1.1" id="Layer_3" xmlns="http://www.w3.org/2000/svg" xmlns:xlink="http://www.w3.org/1999/xlink" x="0px" y="0px"
	 viewBox="0 0 2016 774.615" enable-background="new 0 0 2016 774.615" xml:space="preserve">
<g>
	<polygon points="868.103,59.846 872.103,59.846 872.103,37.846 893.103,37.846 893.103,33.846 872.103,33.846 872.103,11.846 
		868.103,11.846 868.103,33.846 845.103,33.846 845.103,37.846 868.103,37.846 	"/>
	<polygon points="1006.077,59.846 1010.077,59.846 1010.077,37.846 1031.077,37.846 1031.077,33.846 1010.077,33.846 
		1010.077,11.846 1006.077,11.846 1006.077,33.846 983.077,33.846 983.077,37.846 1006.077,37.846 	"/>
	<polygon points="798.154,103.846 775.154,103.846 775.154,107.846 798.154,107.846 798.154,129.846 802.154,129.846 
		802.154,107.846 823.154,107.846 823.154,103.846 802.154,103.846 802.154,81.846 798.154,81.846 	"/>
	<polygon points="937.192,103.846 914.192,103.846 914.192,107.846 937.192,107.846 937.192,129.846 941.192,129.846 
		941.192,107.846 962.192,107.846 962.192,103.846 941.192,103.846 941.192,81.846 937.192,81.846 	"/>
	<polygon points="868.103,173.808 845.103,173.808 845.103,177.808 868.103,177.808 868.103,199.808 872.103,199.808 
		872.103,177.808 893.103,177.808 893.103,173.808 872.103,173.808 872.103,151.808 868.103,151.808 	"/>
	<polygon points="1006.077,173.808 983.077,173.808 983.077,177.808 1006.077,177.808 1006.077,199.808 1010.077,199.808 
		1010.077,177.808 1031.077,177.808 1031.077,173.808 1010.077,173.808 1010.077,151.808 1006.077,151.808 	"/>
	<polygon points="798.154,244.154 775.154,244.154 775.154,248.154 798.154,248.154 798.154,270.154 802.154,270.154 
		802.154,248.154 823.154,248.154 823.154,244.154 802.154,244.154 802.154,222.154 798.154,222.154 	"/>
	<polygon points="937.192,244.154 914.192,244.154 914.192,248.154 937.192,248.154 937.192,270.154 941.192,270.154 
		941.192,248.154 962.192,248.154 962.192,244.154 941.192,244.154 941.192,222.154 937.192,222.154 	"/>
	<polygon points="590.769,59.846 594.769,59.846 594.769,37.846 615.769,37.846 615.769,33.846 594.769,33.846 594.769,11.846 
		590.769,11.846 590.769,33.846 567.769,33.846 567.769,37.846 590.769,37.846 	"/>
	<polygon points="728.744,59.846 732.744,59.846 732.744,37.846 753.744,37.846 753.744,33.846 732.744,33.846 732.744,11.846 
		728.744,11.846 728.744,33.846 705.744,33.846 705.744,37.846 728.744,37.846 	"/>
	<polygon points="520.82,103.846 497.82,103.846 497.82,107.846 520.82,107.846 520.82,129.846 524.82,129.846 524.82,107.846 
		545.82,107.846 545.82,103.846 524.82,103.846 524.82,81.846 520.82,81.846 	"/>
	<polygon points="659.859,103.846 636.859,103.846 636.859,107.846 659.859,107.846 659.859,129.846 663.859,129.846 
		663.859,107.846 684.859,107.846 684.859,103.846 663.859,103.846 663.859,81.846 659.859,81.846 	"/>
	<polygon points="590.769,173.808 567.769,173.808 567.769,177.808 590.769,177.808 590.769,199.808 594.769,199.808 
		594.769,177.808 615.769,177.808 615.769,173.808 594.769,173.808 594.769,151.808 590.769,151.808 	"/>
	<polygon points="728.744,173.808 705.744,173.808 705.744,177.808 728.744,177.808 728.744,199.808 732.744,199.808 
		732.744,177.808 753.744,177.808 753.744,173.808 732.744,173.808 732.744,151.808 728.744,151.808 	"/>
	<polygon points="520.82,244.154 497.82,244.154 497.82,248.154 520.82,248.154 520.82,270.154 524.82,270.154 524.82,248.154 
		545.82,248.154 545.82,244.154 524.82,244.154 524.82,222.154 520.82,222.154 	"/>
	<polygon points="659.859,244.154 636.859,244.154 636.859,248.154 659.859,248.154 659.859,270.154 663.859,270.154 
		663.859,248.154 684.859,248.154 684.859,244.154 663.859,244.154 663.859,222.154 659.859,222.154 	"/>
	<polygon points="312.872,59.846 316.872,59.846 316.872,37.846 337.872,37.846 337.872,33.846 316.872,33.846 316.872,11.846 
		312.872,11.846 312.872,33.846 289.872,33.846 289.872,37.846 312.872,37.846 	"/>
	<polygon points="450.846,59.846 454.846,59.846 454.846,37.846 475.846,37.846 475.846,33.846 454.846,33.846 454.846,11.846 
		450.846,11.846 450.846,33.846 427.846,33.846 427.846,37.846 450.846,37.846 	"/>
	<polygon points="242.923,103.846 219.923,103.846 219.923,107.846 242.923,107.846 242.923,129.846 246.923,129.846 
		246.923,107.846 267.923,107.846 267.923,103.846 246.923,103.846 246.923,81.846 242.923,81.846 	"/>
	<polygon points="381.962,103.846 358.962,103.846 358.962,107.846 381.962,107.846 381.962,129.846 385.962,129.846 
		385.962,107.846 406.962,107.846 406.962,103.846 385.962,103.846 385.962,81.846 381.962,81.846 	"/>
	<polygon points="312.872,173.808 289.872,173.808 289.872,177.808 312.872,177.808 312.872,199.808 316.872,199.808 
		316.872,177.808 337.872,177.808 337.872,173.808 316.872,173.808 316.872,151.808 312.872,151.808 	"/>
	<polygon points="450.846,173.808 427.846,173.808 427.846,177.808 450.846,177.808 450.846,199.808 454.846,199.808 
		454.846,177.808 475.846,177.808 475.846,173.808 454.846,173.808 454.846,151.808 450.846,151.808 	"/>
	<polygon points="242.923,244.154 219.923,244.154 219.923,248.154 242.923,248.154 242.923,270.154 246.923,270.154 
		246.923,248.154 267.923,248.154 267.923,244.154 246.923,244.154 246.923,222.154 242.923,222.154 	"/>
	<polygon points="381.962,244.154 358.962,244.154 358.962,248.154 381.962,248.154 381.962,270.154 385.962,270.154 
		385.962,248.154 406.962,248.154 406.962,244.154 385.962,244.154 385.962,222.154 381.962,222.154 	"/>
	<polygon points="35.538,59.846 39.538,59.846 39.538,37.846 60.538,37.846 60.538,33.846 39.538,33.846 39.538,11.846 
		35.538,11.846 35.538,33.846 12.538,33.846 12.538,37.846 35.538,37.846 	"/>
	<polygon points="173.513,59.846 177.513,59.846 177.513,37.846 198.513,37.846 198.513,33.846 177.513,33.846 177.513,11.846 
		173.513,11.846 173.513,33.846 150.513,33.846 150.513,37.846 173.513,37.846 	"/>
	<polygon points="104.628,103.846 81.628,103.846 81.628,107.846 104.628,107.846 104.628,129.846 108.628,129.846 108.628,107.846 
		129.628,107.846 129.628,103.846 108.628,103.846 108.628,81.846 104.628,81.846 	"/>
	<polygon points="35.538,199.808 39.538,199.808 39.538,177.808 60.538,177.808 60.538,173.808 39.538,173.808 39.538,151.808 
		35.538,151.808 35.538,173.808 12.538,173.808 12.538,177.808 35.538,177.808 	"/>
	<polygon points="173.513,173.808 150.513,173.808 150.513,177.808 173.513,177.808 173.513,199.808 177.513,199.808 
		177.513,177.808 198.513,177.808 198.513,173.808 177.513,173.808 177.513,151.808 173.513,151.808 	"/>
	<polygon points="104.628,270.154 108.628,270.154 108.628,248.154 129.628,248.154 129.628,244.154 108.628,244.154 
		108.628,222.154 104.628,222.154 104.628,244.154 81.628,244.154 81.628,248.154 104.628,248.154 	"/>
	<polygon points="868.103,314.692 845.103,314.692 845.103,318.692 868.103,318.692 868.103,340.692 872.103,340.692 
		872.103,318.692 893.103,318.692 893.103,314.692 872.103,314.692 872.103,292.692 868.103,292.692 	"/>
	<polygon points="1006.077,314.692 983.077,314.692 983.077,318.692 1006.077,318.692 1006.077,340.692 1010.077,340.692 
		1010.077,318.692 1031.077,318.692 1031.077,314.692 1010.077,314.692 1010.077,292.692 1006.077,292.692 	"/>
	<polygon points="802.154,388.692 823.154,388.692 823.154,384.692 802.154,384.692 802.154,362.692 798.154,362.692 
		798.154,384.692 775.154,384.692 775.154,388.692 798.154,388.692 798.154,410.692 802.154,410.692 	"/>
	<polygon points="941.192,388.692 962.192,388.692 962.192,384.692 941.192,384.692 941.192,362.692 937.192,362.692 
		937.192,384.692 914.192,384.692 914.192,388.692 937.192,388.692 937.192,410.692 941.192,410.692 	"/>
	<polygon points="872.103,458.654 893.103,458.654 893.103,454.654 872.103,454.654 872.103,432.654 868.103,432.654 
		868.103,454.654 845.103,454.654 845.103,458.654 868.103,458.654 868.103,480.654 872.103,480.654 	"/>
	<polygon points="1010.077,458.654 1031.077,458.654 1031.077,454.654 1010.077,454.654 1010.077,432.654 1006.077,432.654 
		1006.077,454.654 983.077,454.654 983.077,458.654 1006.077,458.654 1006.077,480.654 1010.077,480.654 	"/>
	<polygon points="802.154,529 823.154,529 823.154,525 802.154,525 802.154,503 798.154,503 798.154,525 775.154,525 775.154,529 
		798.154,529 798.154,551 802.154,551 	"/>
	<polygon points="941.192,529 962.192,529 962.192,525 941.192,525 941.192,503 937.192,503 937.192,525 914.192,525 914.192,529 
		937.192,529 937.192,551 941.192,551 	"/>
	<polygon points="590.769,314.692 567.769,314.692 567.769,318.692 590.769,318.692 590.769,340.692 594.769,340.692 
		594.769,318.692 615.769,318.692 615.769,314.692 594.769,314.692 594.769,292.692 590.769,292.692 	"/>
	<polygon points="728.744,314.692 705.744,314.692 705.744,318.692 728.744,318.692 728.744,340.692 732.744,340.692 
		732.744,318.692 753.744,318.692 753.744,314.692 732.744,314.692 732.744,292.692 728.744,292.692 	"/>
	<polygon points="524.82,388.692 545.82,388.692 545.82,384.692 524.82,384.692 524.82,362.692 520.82,362.692 520.82,384.692 
		497.82,384.692 497.82,388.692 520.82,388.692 520.82,410.692 524.82,410.692 	"/>
	<polygon points="663.859,388.692 684.859,388.692 684.859,384.692 663.859,384.692 663.859,362.692 659.859,362.692 
		659.859,384.692 636.859,384.692 636.859,388.692 659.859,388.692 659.859,410.692 663.859,410.692 	"/>
	<polygon points="594.769,458.654 615.769,458.654 615.769,454.654 594.769,454.654 594.769,432.654 590.769,432.654 
		590.769,454.654 567.769,454.654 567.769,458.654 590.769,458.654 590.769,480.654 594.769,480.654 	"/>
	<polygon points="732.744,458.654 753.744,458.654 753.744,454.654 732.744,454.654 732.744,432.654 728.744,432.654 
		728.744,454.654 705.744,454.654 705.744,458.654 728.744,458.654 728.744,480.654 732.744,480.654 	"/>
	<polygon points="524.82,529 545.82,529 545.82,525 524.82,525 524.82,503 520.82,503 520.82,525 497.82,525 497.82,529 520.82,529 
		520.82,551 524.82,551 	"/>
	<polygon points="663.859,529 684.859,529 684.859,525 663.859,525 663.859,503 659.859,503 659.859,525 636.859,525 636.859,529 
		659.859,529 659.859,551 663.859,551 	"/>
	<polygon points="312.872,314.692 289.872,314.692 289.872,318.692 312.872,318.692 312.872,340.692 316.872,340.692 
		316.872,318.692 337.872,318.692 337.872,314.692 316.872,314.692 316.872,292.692 312.872,292.692 	"/>
	<polygon points="450.846,314.692 427.846,314.692 427.846,318.692 450.846,318.692 450.846,340.692 454.846,340.692 
		454.846,318.692 475.846,318.692 475.846,314.692 454.846,314.692 454.846,292.692 450.846,292.692 	"/>
	<polygon points="246.923,388.692 267.923,388.692 267.923,384.692 246.923,384.692 246.923,362.692 242.923,362.692 
		242.923,384.692 219.923,384.692 219.923,388.692 242.923,388.692 242.923,410.692 246.923,410.692 	"/>
	<polygon points="385.962,388.692 406.962,388.692 406.962,384.692 385.962,384.692 385.962,362.692 381.962,362.692 
		381.962,384.692 358.962,384.692 358.962,388.692 381.962,388.692 381.962,410.692 385.962,410.692 	"/>
	<polygon points="316.872,458.654 337.872,458.654 337.872,454.654 316.872,454.654 316.872,432.654 312.872,432.654 
		312.872,454.654 289.872,454.654 289.872,458.654 312.872,458.654 312.872,480.654 316.872,480.654 	"/>
	<polygon points="454.846,458.654 475.846,458.654 475.846,454.654 454.846,454.654 454.846,432.654 450.846,432.654 
		450.846,454.654 427.846,454.654 427.846,458.654 450.846,458.654 450.846,480.654 454.846,480.654 	"/>
	<polygon points="246.923,529 267.923,529 267.923,525 246.923,525 246.923,503 242.923,503 242.923,525 219.923,525 219.923,529 
		242.923,529 242.923,551 246.923,551 	"/>
	<polygon points="385.962,529 406.962,529 406.962,525 385.962,525 385.962,503 381.962,503 381.962,525 358.962,525 358.962,529 
		381.962,529 381.962,551 385.962,551 	"/>
	<polygon points="35.538,340.692 39.538,340.692 39.538,318.692 60.538,318.692 60.538,314.692 39.538,314.692 39.538,292.692 
		35.538,292.692 35.538,314.692 12.538,314.692 12.538,318.692 35.538,318.692 	"/>
	<polygon points="173.513,340.692 177.513,340.692 177.513,318.692 198.513,318.692 198.513,314.692 177.513,314.692 
		177.513,292.692 173.513,292.692 173.513,314.692 150.513,314.692 150.513,318.692 173.513,318.692 	"/>
	<polygon points="104.628,410.692 108.628,410.692 108.628,388.692 129.628,388.692 129.628,384.692 108.628,384.692 
		108.628,362.692 104.628,362.692 104.628,384.692 81.628,384.692 81.628,388.692 104.628,388.692 	"/>
	<polygon points="35.538,480.654 39.538,480.654 39.538,458.654 60.538,458.654 60.538,454.654 39.538,454.654 39.538,432.654 
		35.538,432.654 35.538,454.654 12.538,454.654 12.538,458.654 35.538,458.654 	"/>
	<polygon points="177.513,458.654 198.513,458.654 198.513,454.654 177.513,454.654 177.513,432.654 173.513,432.654 
		173.513,454.654 150.513,454.654 150.513,458.654 173.513,458.654 173.513,480.654 177.513,480.654 	"/>
	<polygon points="108.628,529 129.628,529 129.628,525 108.628,525 108.628,503 104.628,503 104.628,525 81.628,525 81.628,529 
		104.628,529 104.628,551 108.628,551 	"/>
	<polygon points="872.103,599.692 893.103,599.692 893.103,595.692 872.103,595.692 872.103,573.692 868.103,573.692 
		868.103,595.692 845.103,595.692 845.103,599.692 868.103,599.692 868.103,621.692 872.103,621.692 	"/>
	<polygon points="1010.077,599.692 1031.077,599.692 1031.077,595.692 1010.077,595.692 1010.077,573.692 1006.077,573.692 
		1006.077,595.692 983.077,595.692 983.077,599.692 1006.077,599.692 1006.077,621.692 1010.077,621.692 	"/>
	<polygon points="802.154,669.692 823.154,669.692 823.154,665.692 802.154,665.692 802.154,643.692 798.154,643.692 
		798.154,665.692 775.154,665.692 775.154,669.692 798.154,669.692 798.154,691.692 802.154,691.692 	"/>
	<polygon points="941.192,669.692 962.192,669.692 962.192,665.692 941.192,665.692 941.192,643.692 937.192,643.692 
		937.192,665.692 914.192,665.692 914.192,669.692 937.192,669.692 937.192,691.692 941.192,691.692 	"/>
	<polygon points="872.103,713.654 868.103,713.654 868.103,735.654 845.103,735.654 845.103,739.654 868.103,739.654 
		868.103,761.654 872.103,761.654 872.103,739.654 893.103,739.654 893.103,735.654 872.103,735.654 	"/>
	<polygon points="1010.077,713.654 1006.077,713.654 1006.077,735.654 983.077,735.654 983.077,739.654 1006.077,739.654 
		1006.077,761.654 1010.077,761.654 1010.077,739.654 1031.077,739.654 1031.077,735.654 1010.077,735.654 	"/>
	<polygon points="594.769,599.692 615.769,599.692 615.769,595.692 594.769,595.692 594.769,573.692 590.769,573.692 
		590.769,595.692 567.769,595.692 567.769,599.692 590.769,599.692 590.769,621.692 594.769,621.692 	"/>
	<polygon points="732.744,599.692 753.744,599.692 753.744,595.692 732.744,595.692 732.744,573.692 728.744,573.692 
		728.744,595.692 705.744,595.692 705.744,599.692 728.744,599.692 728.744,621.692 732.744,621.692 	"/>
	<polygon points="524.82,669.692 545.82,669.692 545.82,665.692 524.82,665.692 524.82,643.692 520.82,643.692 520.82,665.692 
		497.82,665.692 497.82,669.692 520.82,669.692 520.82,691.692 524.82,691.692 	"/>
	<polygon points="663.859,669.692 684.859,669.692 684.859,665.692 663.859,665.692 663.859,643.692 659.859,643.692 
		659.859,665.692 636.859,665.692 636.859,669.692 659.859,669.692 659.859,691.692 663.859,691.692 	"/>
	<polygon points="594.769,713.654 590.769,713.654 590.769,735.654 567.769,735.654 567.769,739.654 590.769,739.654 
		590.769,761.654 594.769,761.654 594.769,739.654 615.769,739.654 615.769,735.654 594.769,735.654 	"/>
	<polygon points="732.744,713.654 728.744,713.654 728.744,735.654 705.744,735.654 705.744,739.654 728.744,739.654 
		728.744,761.654 732.744,761.654 732.744,739.654 753.744,739.654 753.744,735.654 732.744,735.654 	"/>
	<polygon points="316.872,599.692 337.872,599.692 337.872,595.692 316.872,595.692 316.872,573.692 312.872,573.692 
		312.872,595.692 289.872,595.692 289.872,599.692 312.872,599.692 312.872,621.692 316.872,621.692 	"/>
	<polygon points="454.846,599.692 475.846,599.692 475.846,595.692 454.846,595.692 454.846,573.692 450.846,573.692 
		450.846,595.692 427.846,595.692 427.846,599.692 450.846,599.692 450.846,621.692 454.846,621.692 	"/>
	<polygon points="246.923,669.692 267.923,669.692 267.923,665.692 246.923,665.692 246.923,643.692 242.923,643.692 
		242.923,665.692 219.923,665.692 219.923,669.692 242.923,669.692 242.923,691.692 246.923,691.692 	"/>
	<polygon points="385.962,669.692 406.962,669.692 406.962,665.692 385.962,665.692 385.962,643.692 381.962,643.692 
		381.962,665.692 358.962,665.692 358.962,669.692 381.962,669.692 381.962,691.692 385.962,691.692 	"/>
	<polygon points="316.872,713.654 312.872,713.654 312.872,735.654 289.872,735.654 289.872,739.654 312.872,739.654 
		312.872,761.654 316.872,761.654 316.872,739.654 337.872,739.654 337.872,735.654 316.872,735.654 	"/>
	<polygon points="454.846,713.654 450.846,713.654 450.846,735.654 427.846,735.654 427.846,739.654 450.846,739.654 
		450.846,761.654 454.846,761.654 454.846,739.654 475.846,739.654 475.846,735.654 454.846,735.654 	"/>
	<polygon points="39.538,599.692 60.538,599.692 60.538,595.692 39.538,595.692 39.538,573.692 35.538,573.692 35.538,595.692 
		12.538,595.692 12.538,599.692 35.538,599.692 35.538,621.692 39.538,621.692 	"/>
	<polygon points="177.513,599.692 198.513,599.692 198.513,595.692 177.513,595.692 177.513,573.692 173.513,573.692 
		173.513,595.692 150.513,595.692 150.513,599.692 173.513,599.692 173.513,621.692 177.513,621.692 	"/>
	<polygon points="108.628,669.692 129.628,669.692 129.628,665.692 108.628,665.692 108.628,643.692 104.628,643.692 
		104.628,665.692 81.628,665.692 81.628,669.692 104.628,669.692 104.628,691.692 108.628,691.692 	"/>
	<polygon points="39.538,713.654 35.538,713.654 35.538,735.654 12.538,735.654 12.538,739.654 35.538,739.654 35.538,761.654 
		39.538,761.654 39.538,739.654 60.538,739.654 60.538,735.654 39.538,735.654 	"/>
	<polygon points="177.513,713.654 173.513,713.654 173.513,735.654 150.513,735.654 150.513,739.654 173.513,739.654 
		173.513,761.654 177.513,761.654 177.513,739.654 198.513,739.654 198.513,735.654 177.513,735.654 	"/>
	<polygon points="1980.102,59.846 1984.102,59.846 1984.102,37.846 2005.102,37.846 2005.102,33.846 1984.102,33.846 
		1984.102,11.846 1980.102,11.846 1980.102,33.846 1957.102,33.846 1957.102,37.846 1980.102,37.846 	"/>
	<polygon points="1910.154,103.846 1887.154,103.846 1887.154,107.846 1910.154,107.846 1910.154,129.846 1914.154,129.846 
		1914.154,107.846 1935.154,107.846 1935.154,103.846 1914.154,103.846 1914.154,81.846 1910.154,81.846 	"/>
	<polygon points="1984.102,151.808 1980.102,151.808 1980.102,173.808 1957.102,173.808 1957.102,177.808 1980.102,177.808 
		1980.102,199.808 1984.102,199.808 1984.102,177.808 2005.102,177.808 2005.102,173.808 1984.102,173.808 	"/>
	<polygon points="1914.154,222.154 1910.154,222.154 1910.154,244.154 1887.154,244.154 1887.154,248.154 1910.154,248.154 
		1910.154,270.154 1914.154,270.154 1914.154,248.154 1935.154,248.154 1935.154,244.154 1914.154,244.154 	"/>
	<polygon points="1702.769,59.846 1706.769,59.846 1706.769,37.846 1727.769,37.846 1727.769,33.846 1706.769,33.846 
		1706.769,11.846 1702.769,11.846 1702.769,33.846 1679.769,33.846 1679.769,37.846 1702.769,37.846 	"/>
	<polygon points="1840.744,59.846 1844.744,59.846 1844.744,37.846 1865.744,37.846 1865.744,33.846 1844.744,33.846 
		1844.744,11.846 1840.744,11.846 1840.744,33.846 1817.744,33.846 1817.744,37.846 1840.744,37.846 	"/>
	<polygon points="1632.82,103.846 1609.82,103.846 1609.82,107.846 1632.82,107.846 1632.82,129.846 1636.82,129.846 
		1636.82,107.846 1657.82,107.846 1657.82,103.846 1636.82,103.846 1636.82,81.846 1632.82,81.846 	"/>
	<polygon points="1771.859,103.846 1748.859,103.846 1748.859,107.846 1771.859,107.846 1771.859,129.846 1775.859,129.846 
		1775.859,107.846 1796.859,107.846 1796.859,103.846 1775.859,103.846 1775.859,81.846 1771.859,81.846 	"/>
	<polygon points="1702.769,173.808 1679.769,173.808 1679.769,177.808 1702.769,177.808 1702.769,199.808 1706.769,199.808 
		1706.769,177.808 1727.769,177.808 1727.769,173.808 1706.769,173.808 1706.769,151.808 1702.769,151.808 	"/>
	<polygon points="1840.744,173.808 1817.744,173.808 1817.744,177.808 1840.744,177.808 1840.744,199.808 1844.744,199.808 
		1844.744,177.808 1865.744,177.808 1865.744,173.808 1844.744,173.808 1844.744,151.808 1840.744,151.808 	"/>
	<polygon points="1632.82,244.154 1609.82,244.154 1609.82,248.154 1632.82,248.154 1632.82,270.154 1636.82,270.154 
		1636.82,248.154 1657.82,248.154 1657.82,244.154 1636.82,244.154 1636.82,222.154 1632.82,222.154 	"/>
	<polygon points="1771.859,244.154 1748.859,244.154 1748.859,248.154 1771.859,248.154 1771.859,270.154 1775.859,270.154 
		1775.859,248.154 1796.859,248.154 1796.859,244.154 1775.859,244.154 1775.859,222.154 1771.859,222.154 	"/>
	<polygon points="1424.872,59.846 1428.872,59.846 1428.872,37.846 1449.872,37.846 1449.872,33.846 1428.872,33.846 
		1428.872,11.846 1424.872,11.846 1424.872,33.846 1401.872,33.846 1401.872,37.846 1424.872,37.846 	"/>
	<polygon points="1562.846,59.846 1566.846,59.846 1566.846,37.846 1587.846,37.846 1587.846,33.846 1566.846,33.846 
		1566.846,11.846 1562.846,11.846 1562.846,33.846 1539.846,33.846 1539.846,37.846 1562.846,37.846 	"/>
	<polygon points="1354.923,103.846 1331.923,103.846 1331.923,107.846 1354.923,107.846 1354.923,129.846 1358.923,129.846 
		1358.923,107.846 1379.923,107.846 1379.923,103.846 1358.923,103.846 1358.923,81.846 1354.923,81.846 	"/>
	<polygon points="1493.962,103.846 1470.962,103.846 1470.962,107.846 1493.962,107.846 1493.962,129.846 1497.962,129.846 
		1497.962,107.846 1518.962,107.846 1518.962,103.846 1497.962,103.846 1497.962,81.846 1493.962,81.846 	"/>
	<polygon points="1424.872,173.808 1401.872,173.808 1401.872,177.808 1424.872,177.808 1424.872,199.808 1428.872,199.808 
		1428.872,177.808 1449.872,177.808 1449.872,173.808 1428.872,173.808 1428.872,151.808 1424.872,151.808 	"/>
	<polygon points="1562.846,173.808 1539.846,173.808 1539.846,177.808 1562.846,177.808 1562.846,199.808 1566.846,199.808 
		1566.846,177.808 1587.846,177.808 1587.846,173.808 1566.846,173.808 1566.846,151.808 1562.846,151.808 	"/>
	<polygon points="1354.923,244.154 1331.923,244.154 1331.923,248.154 1354.923,248.154 1354.923,270.154 1358.923,270.154 
		1358.923,248.154 1379.923,248.154 1379.923,244.154 1358.923,244.154 1358.923,222.154 1354.923,222.154 	"/>
	<polygon points="1493.962,244.154 1470.962,244.154 1470.962,248.154 1493.962,248.154 1493.962,270.154 1497.962,270.154 
		1497.962,248.154 1518.962,248.154 1518.962,244.154 1497.962,244.154 1497.962,222.154 1493.962,222.154 	"/>
	<polygon points="1147.538,59.846 1151.538,59.846 1151.538,37.846 1172.538,37.846 1172.538,33.846 1151.538,33.846 
		1151.538,11.846 1147.538,11.846 1147.538,33.846 1124.538,33.846 1124.538,37.846 1147.538,37.846 	"/>
	<polygon points="1285.513,59.846 1289.513,59.846 1289.513,37.846 1310.513,37.846 1310.513,33.846 1289.513,33.846 
		1289.513,11.846 1285.513,11.846 1285.513,33.846 1262.513,33.846 1262.513,37.846 1285.513,37.846 	"/>
	<polygon points="1077.59,103.846 1054.59,103.846 1054.59,107.846 1077.59,107.846 1077.59,129.846 1081.59,129.846 
		1081.59,107.846 1102.59,107.846 1102.59,103.846 1081.59,103.846 1081.59,81.846 1077.59,81.846 	"/>
	<polygon points="1216.628,103.846 1193.628,103.846 1193.628,107.846 1216.628,107.846 1216.628,129.846 1220.628,129.846 
		1220.628,107.846 1241.628,107.846 1241.628,103.846 1220.628,103.846 1220.628,81.846 1216.628,81.846 	"/>
	<polygon points="1147.538,173.808 1124.538,173.808 1124.538,177.808 1147.538,177.808 1147.538,199.808 1151.538,199.808 
		1151.538,177.808 1172.538,177.808 1172.538,173.808 1151.538,173.808 1151.538,151.808 1147.538,151.808 	"/>
	<polygon points="1285.513,173.808 1262.513,173.808 1262.513,177.808 1285.513,177.808 1285.513,199.808 1289.513,199.808 
		1289.513,177.808 1310.513,177.808 1310.513,173.808 1289.513,173.808 1289.513,151.808 1285.513,151.808 	"/>
	<polygon points="1077.59,244.154 1054.59,244.154 1054.59,248.154 1077.59,248.154 1077.59,270.154 1081.59,270.154 
		1081.59,248.154 1102.59,248.154 1102.59,244.154 1081.59,244.154 1081.59,222.154 1077.59,222.154 	"/>
	<polygon points="1216.628,244.154 1193.628,244.154 1193.628,248.154 1216.628,248.154 1216.628,270.154 1220.628,270.154 
		1220.628,248.154 1241.628,248.154 1241.628,244.154 1220.628,244.154 1220.628,222.154 1216.628,222.154 	"/>
	<polygon points="1984.102,292.692 1980.102,292.692 1980.102,314.692 1957.102,314.692 1957.102,318.692 1980.102,318.692 
		1980.102,340.692 1984.102,340.692 1984.102,318.692 2005.102,318.692 2005.102,314.692 1984.102,314.692 	"/>
	<polygon points="1914.154,362.692 1910.154,362.692 1910.154,384.692 1887.154,384.692 1887.154,388.692 1910.154,388.692 
		1910.154,410.692 1914.154,410.692 1914.154,388.692 1935.154,388.692 1935.154,384.692 1914.154,384.692 	"/>
	<polygon points="1984.102,432.654 1980.102,432.654 1980.102,454.654 1957.102,454.654 1957.102,458.654 1980.102,458.654 
		1980.102,480.654 1984.102,480.654 1984.102,458.654 2005.102,458.654 2005.102,454.654 1984.102,454.654 	"/>
	<polygon points="1914.154,503 1910.154,503 1910.154,525 1887.154,525 1887.154,529 1910.154,529 1910.154,551 1914.154,551 
		1914.154,529 1935.154,529 1935.154,525 1914.154,525 	"/>
	<polygon points="1702.769,314.692 1679.769,314.692 1679.769,318.692 1702.769,318.692 1702.769,340.692 1706.769,340.692 
		1706.769,318.692 1727.769,318.692 1727.769,314.692 1706.769,314.692 1706.769,292.692 1702.769,292.692 	"/>
	<polygon points="1844.744,292.692 1840.744,292.692 1840.744,314.692 1817.744,314.692 1817.744,318.692 1840.744,318.692 
		1840.744,340.692 1844.744,340.692 1844.744,318.692 1865.744,318.692 1865.744,314.692 1844.744,314.692 	"/>
	<polygon points="1636.82,388.692 1657.82,388.692 1657.82,384.692 1636.82,384.692 1636.82,362.692 1632.82,362.692 
		1632.82,384.692 1609.82,384.692 1609.82,388.692 1632.82,388.692 1632.82,410.692 1636.82,410.692 	"/>
	<polygon points="1775.859,388.692 1796.859,388.692 1796.859,384.692 1775.859,384.692 1775.859,362.692 1771.859,362.692 
		1771.859,384.692 1748.859,384.692 1748.859,388.692 1771.859,388.692 1771.859,410.692 1775.859,410.692 	"/>
	<polygon points="1706.769,458.654 1727.769,458.654 1727.769,454.654 1706.769,454.654 1706.769,432.654 1702.769,432.654 
		1702.769,454.654 1679.769,454.654 1679.769,458.654 1702.769,458.654 1702.769,480.654 1706.769,480.654 	"/>
	<polygon points="1844.744,432.654 1840.744,432.654 1840.744,454.654 1817.744,454.654 1817.744,458.654 1840.744,458.654 
		1840.744,480.654 1844.744,480.654 1844.744,458.654 1865.744,458.654 1865.744,454.654 1844.744,454.654 	"/>
	<polygon points="1636.82,529 1657.82,529 1657.82,525 1636.82,525 1636.82,503 1632.82,503 1632.82,525 1609.82,525 1609.82,529 
		1632.82,529 1632.82,551 1636.82,551 	"/>
	<polygon points="1775.859,529 1796.859,529 1796.859,525 1775.859,525 1775.859,503 1771.859,503 1771.859,525 1748.859,525 
		1748.859,529 1771.859,529 1771.859,551 1775.859,551 	"/>
	<polygon points="1424.872,314.692 1401.872,314.692 1401.872,318.692 1424.872,318.692 1424.872,340.692 1428.872,340.692 
		1428.872,318.692 1449.872,318.692 1449.872,314.692 1428.872,314.692 1428.872,292.692 1424.872,292.692 	"/>
	<polygon points="1562.846,314.692 1539.846,314.692 1539.846,318.692 1562.846,318.692 1562.846,340.692 1566.846,340.692 
		1566.846,318.692 1587.846,318.692 1587.846,314.692 1566.846,314.692 1566.846,292.692 1562.846,292.692 	"/>
	<polygon points="1358.923,388.692 1379.923,388.692 1379.923,384.692 1358.923,384.692 1358.923,362.692 1354.923,362.692 
		1354.923,384.692 1331.923,384.692 1331.923,388.692 1354.923,388.692 1354.923,410.692 1358.923,410.692 	"/>
	<polygon points="1497.962,388.692 1518.962,388.692 1518.962,384.692 1497.962,384.692 1497.962,362.692 1493.962,362.692 
		1493.962,384.692 1470.962,384.692 1470.962,388.692 1493.962,388.692 1493.962,410.692 1497.962,410.692 	"/>
	<polygon points="1428.872,458.654 1449.872,458.654 1449.872,454.654 1428.872,454.654 1428.872,432.654 1424.872,432.654 
		1424.872,454.654 1401.872,454.654 1401.872,458.654 1424.872,458.654 1424.872,480.654 1428.872,480.654 	"/>
	<polygon points="1566.846,458.654 1587.846,458.654 1587.846,454.654 1566.846,454.654 1566.846,432.654 1562.846,432.654 
		1562.846,454.654 1539.846,454.654 1539.846,458.654 1562.846,458.654 1562.846,480.654 1566.846,480.654 	"/>
	<polygon points="1358.923,529 1379.923,529 1379.923,525 1358.923,525 1358.923,503 1354.923,503 1354.923,525 1331.923,525 
		1331.923,529 1354.923,529 1354.923,551 1358.923,551 	"/>
	<polygon points="1497.962,529 1518.962,529 1518.962,525 1497.962,525 1497.962,503 1493.962,503 1493.962,525 1470.962,525 
		1470.962,529 1493.962,529 1493.962,551 1497.962,551 	"/>
	<polygon points="1147.538,314.692 1124.538,314.692 1124.538,318.692 1147.538,318.692 1147.538,340.692 1151.538,340.692 
		1151.538,318.692 1172.538,318.692 1172.538,314.692 1151.538,314.692 1151.538,292.692 1147.538,292.692 	"/>
	<polygon points="1285.513,314.692 1262.513,314.692 1262.513,318.692 1285.513,318.692 1285.513,340.692 1289.513,340.692 
		1289.513,318.692 1310.513,318.692 1310.513,314.692 1289.513,314.692 1289.513,292.692 1285.513,292.692 	"/>
	<polygon points="1077.59,384.692 1054.59,384.692 1054.59,388.692 1077.59,388.692 1077.59,410.692 1081.59,410.692 
		1081.59,388.692 1102.59,388.692 1102.59,384.692 1081.59,384.692 1081.59,362.692 1077.59,362.692 	"/>
	<polygon points="1220.628,388.692 1241.628,388.692 1241.628,384.692 1220.628,384.692 1220.628,362.692 1216.628,362.692 
		1216.628,384.692 1193.628,384.692 1193.628,388.692 1216.628,388.692 1216.628,410.692 1220.628,410.692 	"/>
	<polygon points="1151.538,458.654 1172.538,458.654 1172.538,454.654 1151.538,454.654 1151.538,432.654 1147.538,432.654 
		1147.538,454.654 1124.538,454.654 1124.538,458.654 1147.538,458.654 1147.538,480.654 1151.538,480.654 	"/>
	<polygon points="1289.513,458.654 1310.513,458.654 1310.513,454.654 1289.513,454.654 1289.513,432.654 1285.513,432.654 
		1285.513,454.654 1262.513,454.654 1262.513,458.654 1285.513,458.654 1285.513,480.654 1289.513,480.654 	"/>
	<polygon points="1081.59,529 1102.59,529 1102.59,525 1081.59,525 1081.59,503 1077.59,503 1077.59,525 1054.59,525 1054.59,529 
		1077.59,529 1077.59,551 1081.59,551 	"/>
	<polygon points="1220.628,529 1241.628,529 1241.628,525 1220.628,525 1220.628,503 1216.628,503 1216.628,525 1193.628,525 
		1193.628,529 1216.628,529 1216.628,551 1220.628,551 	"/>
	<polygon points="1984.102,573.692 1980.102,573.692 1980.102,595.692 1957.102,595.692 1957.102,599.692 1980.102,599.692 
		1980.102,621.692 1984.102,621.692 1984.102,599.692 2005.102,599.692 2005.102,595.692 1984.102,595.692 	"/>
	<polygon points="1914.154,669.692 1935.154,669.692 1935.154,665.692 1914.154,665.692 1914.154,643.692 1910.154,643.692 
		1910.154,665.692 1887.154,665.692 1887.154,669.692 1910.154,669.692 1910.154,691.692 1914.154,691.692 	"/>
	<polygon points="1984.102,713.654 1980.102,713.654 1980.102,735.654 1957.102,735.654 1957.102,739.654 1980.102,739.654 
		1980.102,761.654 1984.102,761.654 1984.102,739.654 2005.102,739.654 2005.102,735.654 1984.102,735.654 	"/>
	<polygon points="1706.769,599.692 1727.769,599.692 1727.769,595.692 1706.769,595.692 1706.769,573.692 1702.769,573.692 
		1702.769,595.692 1679.769,595.692 1679.769,599.692 1702.769,599.692 1702.769,621.692 1706.769,621.692 	"/>
	<polygon points="1844.744,599.692 1865.744,599.692 1865.744,595.692 1844.744,595.692 1844.744,573.692 1840.744,573.692 
		1840.744,595.692 1817.744,595.692 1817.744,599.692 1840.744,599.692 1840.744,621.692 1844.744,621.692 	"/>
	<polygon points="1636.82,669.692 1657.82,669.692 1657.82,665.692 1636.82,665.692 1636.82,643.692 1632.82,643.692 
		1632.82,665.692 1609.82,665.692 1609.82,669.692 1632.82,669.692 1632.82,691.692 1636.82,691.692 	"/>
	<polygon points="1775.859,669.692 1796.859,669.692 1796.859,665.692 1775.859,665.692 1775.859,643.692 1771.859,643.692 
		1771.859,665.692 1748.859,665.692 1748.859,669.692 1771.859,669.692 1771.859,691.692 1775.859,691.692 	"/>
	<polygon points="1706.769,713.654 1702.769,713.654 1702.769,735.654 1679.769,735.654 1679.769,739.654 1702.769,739.654 
		1702.769,761.654 1706.769,761.654 1706.769,739.654 1727.769,739.654 1727.769,735.654 1706.769,735.654 	"/>
	<polygon points="1844.744,713.654 1840.744,713.654 1840.744,735.654 1817.744,735.654 1817.744,739.654 1840.744,739.654 
		1840.744,761.654 1844.744,761.654 1844.744,739.654 1865.744,739.654 1865.744,735.654 1844.744,735.654 	"/>
	<polygon points="1428.872,599.692 1449.872,599.692 1449.872,595.692 1428.872,595.692 1428.872,573.692 1424.872,573.692 
		1424.872,595.692 1401.872,595.692 1401.872,599.692 1424.872,599.692 1424.872,621.692 1428.872,621.692 	"/>
	<polygon points="1566.846,599.692 1587.846,599.692 1587.846,595.692 1566.846,595.692 1566.846,573.692 1562.846,573.692 
		1562.846,595.692 1539.846,595.692 1539.846,599.692 1562.846,599.692 1562.846,621.692 1566.846,621.692 	"/>
	<polygon points="1358.923,669.692 1379.923,669.692 1379.923,665.692 1358.923,665.692 1358.923,643.692 1354.923,643.692 
		1354.923,665.692 1331.923,665.692 1331.923,669.692 1354.923,669.692 1354.923,691.692 1358.923,691.692 	"/>
	<polygon points="1497.962,669.692 1518.962,669.692 1518.962,665.692 1497.962,665.692 1497.962,643.692 1493.962,643.692 
		1493.962,665.692 1470.962,665.692 1470.962,669.692 1493.962,669.692 1493.962,691.692 1497.962,691.692 	"/>
	<polygon points="1428.872,713.654 1424.872,713.654 1424.872,735.654 1401.872,735.654 1401.872,739.654 1424.872,739.654 
		1424.872,761.654 1428.872,761.654 1428.872,739.654 1449.872,739.654 1449.872,735.654 1428.872,735.654 	"/>
	<polygon points="1566.846,713.654 1562.846,713.654 1562.846,735.654 1539.846,735.654 1539.846,739.654 1562.846,739.654 
		1562.846,761.654 1566.846,761.654 1566.846,739.654 1587.846,739.654 1587.846,735.654 1566.846,735.654 	"/>
	<polygon points="1151.538,599.692 1172.538,599.692 1172.538,595.692 1151.538,595.692 1151.538,573.692 1147.538,573.692 
		1147.538,595.692 1124.538,595.692 1124.538,599.692 1147.538,599.692 1147.538,621.692 1151.538,621.692 	"/>
	<polygon points="1289.513,599.692 1310.513,599.692 1310.513,595.692 1289.513,595.692 1289.513,573.692 1285.513,573.692 
		1285.513,595.692 1262.513,595.692 1262.513,599.692 1285.513,599.692 1285.513,621.692 1289.513,621.692 	"/>
	<polygon points="1081.59,669.692 1102.59,669.692 1102.59,665.692 1081.59,665.692 1081.59,643.692 1077.59,643.692 
		1077.59,665.692 1054.59,665.692 1054.59,669.692 1077.59,669.692 1077.59,691.692 1081.59,691.692 	"/>
	<polygon points="1220.628,669.692 1241.628,669.692 1241.628,665.692 1220.628,665.692 1220.628,643.692 1216.628,643.692 
		1216.628,665.692 1193.628,665.692 1193.628,669.692 1216.628,669.692 1216.628,691.692 1220.628,691.692 	"/>
	<polygon points="1151.538,713.654 1147.538,713.654 1147.538,735.654 1124.538,735.654 1124.538,739.654 1147.538,739.654 
		1147.538,761.654 1151.538,761.654 1151.538,739.654 1172.538,739.654 1172.538,735.654 1151.538,735.654 	"/>
	<polygon points="1289.513,713.654 1285.513,713.654 1285.513,735.654 1262.513,735.654 1262.513,739.654 1285.513,739.654 
		1285.513,761.654 1289.513,761.654 1289.513,739.654 1310.513,739.654 1310.513,735.654 1289.513,735.654 	"/>
</g>
<g>
	<path d="M2013.474,774.615"/>
	<path d="M103.7,33.846H81.628v4h22.205l-64.295,64.295V81.846h-4v20.115L0,66.423v4.242l33.181,33.181H12.538v4h20.776L0,141.161
		v4.242l35.538-35.538v19.981h4v-20.161l64.123,64.123H81.628v4h22.244l-64.333,64.333v-19.987h-4v19.808L0,206.423v4.242
		l33.489,33.489h-20.95v4h21.315L0,282.007v4.242l35.538-35.538v19.443h4v-19.623l64.161,64.161H81.628v4h22.205l-64.295,64.295
		v-20.295h-4v20.115L0,347.269v4.242l33.181,33.181H12.538v4h20.776L0,422.007v4.242l35.538-35.538v19.981h4v-20.161l64.123,64.123
		H81.628v4h22.243l-64.333,64.333V503h-4v19.808L0,487.269v4.242L33.489,525h-20.95v4h21.469L0,563.007v4.242l35.538-35.538V551h4
		v-19.469l64.162,64.161H81.628v4h22.205l-64.294,64.295v-20.295h-4v20.115L0,628.269v4.242l33.181,33.181H12.538v4h20.776
		L0,703.007v4.242l35.538-35.538v19.981h4v-20.161l64.123,64.123H81.628v4h22.243L68.91,774.615h4.242l31.476-31.476v18.515h4
		v-18.515l31.476,31.476h4.242l-34.961-34.962h20.243v-4h-20.033l63.918-63.917v19.956h4v-20.187l64.149,64.148h-21.738v4h21.948
		l-34.961,34.962h4.242l31.771-31.771v18.809h4V742.1l32.514,32.515h4.242l-34.961-34.962h19.204v-4h-18.995l63.943-63.943v19.982h4
		v-20.161l64.123,64.122h-22.033v4h22.243l-34.961,34.962h4.242l31.476-31.476v18.515h4v-18.515l31.476,31.476h4.242l-34.961-34.962
		h20.243v-4h-20.033l63.918-63.918v19.956h4v-20.186l64.149,64.148H497.82v4h21.384l-34.962,34.962h4.242l32.335-32.335v19.373h4
		V742.1l32.514,32.515h4.242l-34.961-34.962h19.204v-4h-18.994l63.943-63.943v19.982h4v-20.161l64.123,64.122h-22.034v4h22.243
		l-34.962,34.962h4.242l31.476-31.476v18.514h4v-18.515l31.476,31.477h4.242l-34.961-34.962h20.243v-4h-20.033l63.918-63.918v19.956
		h4v-20.186l64.149,64.148h-21.739v4h21.949l-34.962,34.962h4.242l31.771-31.771v18.809h4v-19.553l32.515,32.515h4.242
		l-34.962-34.962h19.205v-4h-18.995l63.943-63.943v19.981h4v-20.161l64.123,64.123h-22.033v4h22.243l-34.961,34.962h4.242
		l31.476-31.476v18.515h4v-18.515l31.476,31.476h4.242l-34.962-34.962h20.243v-4h-20.033l63.918-63.917v19.955h4v-20.187
		l64.149,64.149h-19.636v4h19.846l-34.961,34.962h4.242l33.873-33.874v20.912h4V742.1l32.515,32.515h4.242l-34.961-34.962h19.204v-4
		h-18.994l63.943-63.943v19.981h4v-20.161l64.123,64.123h-22.033v4h22.243l-34.961,34.962h4.242l31.476-31.477v18.515h4v-18.515
		l31.476,31.477h4.242l-34.961-34.962h20.243v-4h-20.033l63.917-63.917v19.956h4v-20.187l64.148,64.148h-21.738v4h21.948
		l-34.961,34.962h4.242l31.771-31.771v18.81h4v-19.553l32.514,32.515h4.242l-34.961-34.962h19.204v-4h-18.995l63.943-63.943v19.982
		h4v-20.161l64.123,64.122h-22.033v4h22.243l-34.962,34.962h4.242l31.476-31.476v18.514h4v-18.515l31.476,31.476h4.242
		l-34.961-34.962h20.243v-4h-20.033l63.917-63.918v19.956h4v-20.186l64.149,64.148h-21.175v4h21.385l-34.962,34.962h4.242
		l32.335-32.335v19.373h4V742.1l32.515,32.515h4.242l-34.961-34.962h19.204v-4h-18.994l63.943-63.943v19.982h4v-20.161
		l64.123,64.122h-22.033v4h22.243l-34.962,34.962h4.242l31.476-31.476v18.514h4v-18.515l31.476,31.477h4.242l-34.961-34.962h20.243
		v-4h-20.033l63.917-63.918v19.956h4v-20.186l64.149,64.148h-21.739v4h21.949l-34.961,34.962h4.242l31.771-31.771v18.809h4v-19.553
		l32.515,32.515h4.242l-34.961-34.962h19.205v-4h-18.995l63.943-63.943v19.981h4v-20.161L2016,703.428v-4.242l-29.494-29.494h18.596
		v-4h-18.462l29.36-29.36v-4.242l-31.897,31.898v-20.295h-4v20.115l-64.115-64.115h19.166v-4h-19.033l63.982-63.981V551h4v-19.469
		L2016,563.428v-4.242L1985.814,529h19.289v-4h-18.77L2016,495.332v-4.242l-31.897,31.898V503h-4v19.807l-64.153-64.153h19.205v-4
		h-18.995l63.943-63.943v19.981h4v-20.161L2016,422.428v-4.242l-29.494-29.494h18.596v-4h-18.462l29.36-29.36v-4.242l-31.897,31.898
		v-20.295h-4v20.115l-64.115-64.115h19.167v-4h-19.033l63.981-63.981v19.443h4v-19.623L2016,282.428v-4.242l-30.032-30.032h19.135
		v-4h-18.77L2016,214.486v-4.242l-31.897,31.898v-19.988h-4v19.807l-64.154-64.153h19.205v-4h-18.994l63.943-63.943v19.981h4
		v-20.161L2016,141.582v-4.242l-29.494-29.494h18.596v-4h-18.462l29.36-29.36v-4.242l-31.897,31.898V81.846h-4v20.115
		l-64.115-64.115h19.167v-4h-19.033L1949.967,0h-4.242l-31.572,31.571V11.846h-4v18.981L1879.326,0h-4.242l33.846,33.846h-21.777v4
		h21.911l-64.321,64.32v-20.32h-4v20.09l-64.089-64.09h20.205v-4h-20.071L1810.634,0h-4.242l-30.533,30.533V11.846h-4v18.686
		L1741.326,0h-4.242l33.846,33.846h-22.072v4h22.205l-64.295,64.295V81.846h-4v20.116l-64.115-64.116h19.166v-4h-19.032L1672.634,0
		h-4.242l-31.571,31.571V11.846h-4v19.545L1601.429,0h-4.242l33.846,33.846h-21.213v4h21.346l-64.321,64.32v-20.32h-4v20.09
		l-64.089-64.09h20.205v-4h-20.071L1532.736,0h-4.242l-30.533,30.533V11.846h-4v18.686L1463.429,0h-4.242l33.846,33.846h-22.072v4
		h22.205l-64.295,64.295V81.846h-4v20.116l-64.115-64.116h19.166v-4h-19.033L1394.736,0h-4.242l-31.571,31.571V11.846h-4v18.982
		L1324.095,0h-4.242l33.846,33.846h-21.776v4h21.91l-64.32,64.321V81.846h-4v20.09l-64.089-64.09h20.204v-4h-20.071L1255.403,0
		h-4.242l-30.533,30.533V11.846h-4v18.687L1186.095,0h-4.242l33.846,33.846h-22.071v4h22.205l-64.294,64.295V81.846h-4v20.115
		l-64.115-64.115h19.166v-4h-19.032L1117.403,0h-4.242l-31.572,31.572V11.846h-4V32.93L1044.66,0h-4.242l33.846,33.846h-19.674v4
		h19.808l-64.32,64.321V81.846h-4v20.089l-64.09-64.089h20.205v-4h-20.071L975.967,0h-4.242l-30.533,30.533V11.846h-4v18.687
		L906.66,0h-4.242l33.846,33.846h-22.071v4h22.205l-64.295,64.295V81.846h-4v20.115l-64.115-64.115h19.167v-4h-19.033L837.967,0
		h-4.242l-31.571,31.571V11.846h-4v18.981L767.326,0h-4.242l33.846,33.846h-21.777v4h21.911l-64.321,64.32v-20.32h-4v20.09
		l-64.089-64.09h20.205v-4h-20.071L698.634,0h-4.242l-30.533,30.533V11.846h-4v18.686L629.326,0h-4.242l33.846,33.846h-22.072v4
		h22.205l-64.295,64.295V81.846h-4v20.116l-64.115-64.116h19.166v-4h-19.032L560.634,0h-4.242L524.82,31.571V11.846h-4v19.545
		L489.429,0h-4.242l33.846,33.846H497.82v4h21.346l-64.321,64.32v-20.32h-4v20.09l-64.089-64.09h20.205v-4h-20.071L420.736,0h-4.242
		l-30.533,30.533V11.846h-4v18.687L351.429,0h-4.242l33.846,33.846h-22.071v4h22.205l-64.295,64.295V81.846h-4v20.116
		l-64.115-64.116h19.166v-4h-19.033L282.736,0h-4.242l-31.571,31.571V11.846h-4v18.981L212.096,0h-4.242L241.7,33.846h-21.776v4
		h21.91l-64.321,64.321V81.846h-4v20.09l-64.09-64.09h20.205v-4h-20.071L143.403,0h-4.242l-30.533,30.533V11.846h-4v18.686L74.096,0
		h-4.242L103.7,33.846z M41.403,248.154h19.135v-4H41.768l62.86-62.86v18.514h4v-18.514l62.86,62.86h-20.976v4h21.341
		l-63.225,63.225v-18.687h-4v18.686L41.403,248.154z M177.513,270.154v-19.648l64.187,64.187h-21.776v4h21.91l-64.321,64.321
		v-20.321h-4v20.09l-64.09-64.09h20.205v-4h-20.071l63.956-63.956v19.417H177.513z M179.768,244.154l63.155-63.155v18.809h4v-19.553
		l63.899,63.899h-20.95v4h21.315l-64.263,64.264v-19.725h-4v18.981l-63.52-63.52h19.11v-4H179.768z M316.872,270.154v-19.622
		l64.161,64.161h-22.071v4h22.205l-64.295,64.295v-20.295h-4v20.116l-64.115-64.116h19.166v-4h-19.033l63.981-63.982v19.443H316.872
		z M319.101,244.154l62.861-62.861v18.514h4v-18.514l62.86,62.861h-20.976v4h21.34l-63.225,63.225v-18.687h-4v18.687l-63.225-63.225
		h19.136v-4H319.101z M454.846,270.154v-19.648l64.187,64.186H497.82v4h21.346l-64.321,64.32v-20.32h-4v20.09l-64.089-64.09h20.205
		v-4h-20.071l63.956-63.956v19.418H454.846z M457.101,244.154l63.72-63.719v19.373h4v-19.553l63.899,63.899h-20.95v4h21.315
		l-64.263,64.264v-19.725h-4v19.545l-64.084-64.084h19.11v-4H457.101z M594.769,270.154v-19.622l64.161,64.161h-22.072v4h22.205
		l-64.295,64.295v-20.295h-4v20.116l-64.115-64.116h19.166v-4h-19.032l63.981-63.982v19.443H594.769z M596.998,244.154l62.861-62.86
		v18.514h4v-18.515l62.86,62.861h-20.976v4h21.34l-63.225,63.225v-18.687h-4v18.686l-63.225-63.225h19.136v-4H596.998z
		 M732.744,270.154v-19.648l64.187,64.186h-21.777v4h21.911l-64.321,64.32v-20.32h-4v20.09l-64.089-64.09h20.205v-4h-20.071
		l63.956-63.956v19.418H732.744z M734.998,244.154l63.155-63.155v18.809h4v-19.553l63.899,63.899h-20.951v4h21.315l-64.264,64.264
		v-19.725h-4v18.981l-63.52-63.52h19.11v-4H734.998z M872.103,270.154v-19.623l64.161,64.161h-22.071v4h22.205l-64.295,64.295
		v-20.295h-4v20.115l-64.115-64.115h19.167v-4h-19.033l63.982-63.981v19.443H872.103z M874.332,244.154l62.86-62.86v18.514h4
		v-18.514l62.861,62.86h-20.976v4h21.341l-63.226,63.225v-18.687h-4v18.687l-63.225-63.225h19.135v-4H874.332z M1010.077,270.154
		v-19.649l64.187,64.187h-19.674v4h19.808l-64.32,64.321v-20.321h-4v20.089l-64.09-64.089h20.205v-4h-20.071l63.956-63.955v19.417
		H1010.077z M1012.332,244.154l65.257-65.258v20.912h4v-19.553l63.899,63.899h-20.95v4h21.315l-64.264,64.264v-19.726h-4v21.084
		l-65.622-65.623h19.109v-4H1012.332z M1151.538,270.154v-19.623l64.161,64.161h-22.071v4h22.205l-64.294,64.295v-20.295h-4v20.115
		l-64.115-64.115h19.166v-4h-19.032l63.981-63.981v19.443H1151.538z M1153.768,244.154l62.86-62.861v18.515h4v-18.515l62.86,62.861
		h-20.976v4h21.341l-63.225,63.226v-18.687h-4v18.687l-63.225-63.225h19.135v-4H1153.768z M1289.513,270.154v-19.648l64.186,64.187
		h-21.776v4h21.91l-64.32,64.321v-20.321h-4v20.09l-64.089-64.09h20.204v-4h-20.071l63.955-63.956v19.417H1289.513z
		 M1291.768,244.154l63.155-63.156v18.81h4v-19.553l63.899,63.899h-20.95v4h21.315l-64.263,64.264v-19.725h-4v18.982l-63.52-63.52
		h19.11v-4H1291.768z M1428.872,270.154v-19.622l64.161,64.161h-22.072v4h22.205l-64.295,64.295v-20.295h-4v20.116l-64.115-64.116
		h19.166v-4h-19.033l63.981-63.982v19.443H1428.872z M1431.101,244.154l62.861-62.86v18.514h4v-18.514l62.86,62.861h-20.976v4h21.34
		l-63.225,63.225v-18.687h-4v18.686l-63.225-63.225h19.135v-4H1431.101z M1566.846,270.154v-19.648l64.187,64.186h-21.213v4h21.346
		l-64.321,64.32v-20.32h-4v20.09l-64.089-64.09h20.205v-4h-20.071l63.956-63.956v19.418H1566.846z M1569.101,244.154l63.719-63.719
		v19.373h4v-19.553l63.899,63.899h-20.95v4h21.315l-64.263,64.264v-19.725h-4v19.545l-64.084-64.084h19.11v-4H1569.101z
		 M1706.769,270.154v-19.622l64.161,64.161h-22.072v4h22.205l-64.295,64.295v-20.295h-4v20.116l-64.115-64.116h19.166v-4h-19.032
		l63.981-63.982v19.443H1706.769z M1708.998,244.154l62.861-62.86v18.514h4v-18.515l62.86,62.861h-20.976v4h21.34l-63.225,63.225
		v-18.687h-4v18.686l-63.225-63.225h19.135v-4H1708.998z M1844.744,270.154v-19.648l64.187,64.186h-21.777v4h21.911l-64.321,64.32
		v-20.32h-4v20.09l-64.089-64.09h20.205v-4h-20.071l63.956-63.956v19.418H1844.744z M1909.102,458.654l-64.359,64.359V503h-4v19.782
		l-64.127-64.128h20.243v-4h-20.033l63.917-63.918v19.956h4v-20.186l64.149,64.148h-21.739v4H1909.102z M1771.859,573.692v18.686
		L1708.48,529h19.289v-4h-18.771l62.861-62.861v18.514h4v-18.515l62.86,62.861h-20.976v4h21.494l-63.379,63.379v-18.686H1771.859z
		 M1702.769,503v19.808l-64.153-64.154h19.204v-4h-18.994l63.943-63.943v19.982h4v-20.161l64.123,64.122h-22.033v4h22.243
		l-64.333,64.333V503H1702.769z M1632.82,573.692v19.545L1568.582,529h19.264v-4h-18.745l63.719-63.72v19.373h4V461.1l63.899,63.9
		h-20.95v4h21.469l-64.417,64.417v-19.725H1632.82z M1562.846,503v19.782l-64.127-64.128h20.243v-4h-20.033l63.917-63.918v19.956h4
		v-20.186l64.149,64.148h-21.175v4h21.385l-64.359,64.359V503H1562.846z M1493.962,573.692v18.686L1430.582,529h19.289v-4h-18.771
		l62.861-62.861v18.514h4v-18.515l62.86,62.861h-20.976v4h21.494l-63.379,63.379v-18.686H1493.962z M1424.872,503v19.808
		l-64.153-64.154h19.204v-4h-18.995l63.943-63.943v19.982h4v-20.161l64.123,64.122h-22.033v4h22.243l-64.333,64.333V503H1424.872z
		 M1354.923,573.692v18.981L1291.249,529h19.263v-4h-18.745l63.155-63.156v18.81h4v-19.553L1422.822,525h-20.95v4h21.469
		l-64.417,64.417v-19.725H1354.923z M1285.513,503v19.782l-64.127-64.128h20.243v-4h-20.033l63.917-63.917v19.956h4v-20.187
		l64.148,64.148h-21.738v4h21.948l-64.358,64.359V503H1285.513z M1216.628,573.692v18.686L1153.249,529h19.289v-4h-18.771
		l62.86-62.861v18.515h4v-18.515l62.86,62.861h-20.976v4h21.494l-63.379,63.379v-18.687H1216.628z M1147.538,503v19.808
		l-64.153-64.154h19.204v-4h-18.994l63.943-63.943v19.981h4v-20.161l64.123,64.123h-22.033v4h22.243l-64.333,64.333V503H1147.538z
		 M1077.59,573.692v21.084L1011.814,529h19.263v-4h-18.745l65.257-65.258v20.912h4V461.1l63.899,63.9h-20.95v4h21.469
		l-64.417,64.417v-19.725H1077.59z M1006.077,503v19.782l-64.128-64.128h20.243v-4h-20.033l63.918-63.917v19.955h4v-20.187
		l64.149,64.149h-19.636v4h19.846l-64.359,64.359V503H1006.077z M937.192,573.692v18.686L873.814,529h19.289v-4h-18.77l62.86-62.861
		v18.515h4v-18.515L1004.053,525h-20.976v4h21.495l-63.379,63.378v-18.686H937.192z M868.103,503v19.807l-64.153-64.153h19.205v-4
		h-18.995l63.943-63.943v19.981h4v-20.161l64.123,64.123h-22.033v4h22.243l-64.333,64.334V503H868.103z M798.154,573.692v18.981
		L734.48,529h19.264v-4h-18.745l63.155-63.155v18.809h4v-19.553L866.053,525h-20.951v4h21.469l-64.418,64.417v-19.725H798.154z
		 M728.744,503v19.782l-64.128-64.128h20.243v-4h-20.033l63.918-63.918v19.956h4v-20.186l64.149,64.148h-21.739v4h21.949
		l-64.359,64.359V503H728.744z M659.859,573.692v18.686L596.48,529h19.289v-4h-18.771l62.861-62.861v18.514h4v-18.515L726.719,525
		h-20.976v4h21.494l-63.379,63.379v-18.686H659.859z M590.769,503v19.808l-64.153-64.154h19.204v-4h-18.994l63.943-63.943v19.982h4
		v-20.161l64.123,64.122h-22.034v4h22.243l-64.333,64.333V503H590.769z M520.82,573.692v19.545L456.582,529h19.264v-4h-18.745
		l63.72-63.72v19.373h4V461.1l63.899,63.9h-20.95v4h21.468l-64.417,64.417v-19.725H520.82z M450.846,503v19.782l-64.128-64.128
		h20.243v-4h-20.033l63.918-63.918v19.956h4v-20.186l64.149,64.148H497.82v4h21.384l-64.359,64.359V503H450.846z M381.962,573.692
		v18.686L318.582,529h19.289v-4h-18.771l62.861-62.861v18.515h4v-18.515L448.822,525h-20.976v4h21.494l-63.379,63.379v-18.686
		H381.962z M312.872,503v19.808l-64.153-64.154h19.204v-4h-18.995l63.943-63.943v19.982h4v-20.161l64.123,64.122h-22.033v4h22.243
		l-64.333,64.333V503H312.872z M242.923,573.692v18.981L179.249,529h19.263v-4h-18.745l63.155-63.156v18.809h4V461.1l63.899,63.9
		h-20.95v4h21.468l-64.417,64.417v-19.725H242.923z M173.513,503v19.782l-64.128-64.128h20.243v-4h-20.033l63.918-63.917v19.956h4
		v-20.187l64.149,64.148h-21.738v4h21.948l-64.359,64.359V503H173.513z M180.076,384.692l62.847-62.847v18.847h4v-19.591
		l63.591,63.591h-20.642v4h20.776l-63.725,63.725v-19.763h-4v19.019l-62.981-62.981h18.571v-4H180.076z M319.409,384.692
		l62.553-62.553v18.553h4v-18.553l62.552,62.553h-20.668v4h20.802l-62.686,62.686v-18.725h-4v18.725l-62.687-62.686h18.597v-4
		H319.409z M457.409,384.692l63.412-63.411v19.411h4v-19.591l63.591,63.591h-20.642v4h20.776l-63.725,63.725v-19.763h-4v19.583
		l-63.546-63.545h18.571v-4H457.409z M597.306,384.692l62.553-62.552v18.552h4v-18.553l62.552,62.553h-20.668v4h20.802
		l-62.686,62.686v-18.725h-4v18.724l-62.687-62.686h18.597v-4H597.306z M735.306,384.692l62.848-62.847v18.847h4v-19.591
		l63.592,63.591h-20.643v4h20.777l-63.725,63.725v-19.763h-4v19.019l-62.982-62.981h18.571v-4H735.306z M874.64,384.692
		l62.552-62.553v18.553h4V322.14l62.553,62.553h-20.669v4h20.802l-62.687,62.686v-18.725h-4v18.725l-62.686-62.686h18.596v-4H874.64
		z M1012.64,384.692l64.95-64.95v20.95h4v-19.592l63.591,63.592h-20.643v4h20.776l-63.725,63.725v-19.764h-4v21.122l-65.083-65.084
		h18.571v-4H1012.64z M1154.076,384.692l62.553-62.553v18.553h4v-18.553l62.553,62.553h-20.668v4h20.802l-62.687,62.687v-18.725h-4
		v18.725l-62.686-62.686h18.597v-4H1154.076z M1292.076,384.692l62.848-62.848v18.848h4v-19.591l63.591,63.591h-20.642v4h20.776
		l-63.725,63.725v-19.763h-4v19.02l-62.981-62.981h18.571v-4H1292.076z M1431.409,384.692l62.553-62.552v18.552h4v-18.553
		l62.552,62.553h-20.668v4h20.802l-62.686,62.686v-18.725h-4v18.724l-62.687-62.686h18.597v-4H1431.409z M1569.409,384.692
		l63.412-63.411v19.411h4v-19.591l63.591,63.591h-20.642v4h20.776l-63.725,63.725v-19.763h-4v19.583l-63.546-63.545h18.571v-4
		H1569.409z M1709.306,384.692l62.553-62.552v18.552h4v-18.553l62.552,62.553h-20.668v4h20.802l-62.686,62.686v-18.725h-4v18.724
		l-62.687-62.686h18.597v-4H1709.306z M41.942,388.692h18.597v-4H42.076l62.553-62.553v18.553h4V322.14l62.553,62.553h-20.668v4
		h20.802l-62.687,62.686v-18.725h-4v18.724L41.942,388.692z M41.249,529h19.289v-4H41.768l62.86-62.861v18.515h4v-18.515
		L171.489,525h-20.976v4h21.494l-63.379,63.379v-18.686h-4v18.686L41.249,529z M108.628,732.379v-18.725h-4v18.724l-62.686-62.686
		h18.597v-4H42.076l62.553-62.553v18.553h4v-18.553l62.553,62.553h-20.668v4h20.802L108.628,732.379z M173.513,643.692v20.09
		l-64.089-64.09h20.205v-4h-20.072l63.956-63.956V551h4v-19.494l64.187,64.187h-21.777v4h21.91l-64.32,64.321v-20.321H173.513z
		 M246.923,733.417v-19.763h-4v19.019l-62.981-62.981h18.571v-4h-18.437l62.847-62.848v18.848h4V602.1l63.591,63.592h-20.642v4
		h20.776L246.923,733.417z M312.872,643.692v20.116l-64.115-64.116h19.166v-4H248.89l63.982-63.982V551h4v-19.468l64.161,64.161
		h-22.071v4h22.204l-64.294,64.295v-20.295H312.872z M385.962,732.379v-18.725h-4v18.725l-62.687-62.686h18.597v-4h-18.463
		l62.553-62.553v18.553h4v-18.553l62.552,62.553h-20.668v4h20.802L385.962,732.379z M450.846,643.692v20.09l-64.089-64.09h20.204v-4
		H386.89l63.956-63.956V551h4v-19.494l64.187,64.186H497.82v4h21.346l-64.32,64.32v-20.32H450.846z M524.82,733.417v-19.763h-4
		v19.583l-63.546-63.545h18.571v-4h-18.438l63.412-63.412v19.412h4V602.1l63.591,63.592h-20.642v4h20.776L524.82,733.417z
		 M590.769,643.692v20.116l-64.115-64.116h19.166v-4h-19.033l63.982-63.982V551h4v-19.468l64.162,64.161h-22.072v4h22.205
		l-64.295,64.295v-20.295H590.769z M663.859,732.379v-18.725h-4v18.724l-62.687-62.686h18.597v-4h-18.463l62.553-62.553v18.553h4
		v-18.553l62.552,62.553h-20.668v4h20.802L663.859,732.379z M728.744,643.692v20.09l-64.089-64.09h20.204v-4h-20.071l63.956-63.956
		V551h4v-19.494l64.187,64.186h-21.777v4h21.91l-64.32,64.32v-20.32H728.744z M802.154,733.417v-19.763h-4v19.019l-62.982-62.981
		h18.571v-4h-18.438l62.848-62.848v18.848h4v-19.592l63.592,63.592h-20.643v4h20.777L802.154,733.417z M868.103,643.692v20.115
		l-64.115-64.115h19.166v-4h-19.033l63.982-63.981V551h4v-19.469l64.161,64.161h-22.072v4h22.205l-64.294,64.295v-20.295H868.103z
		 M941.192,732.378v-18.725h-4v18.725l-62.686-62.686h18.596v-4H874.64l62.552-62.553v18.553h4v-18.553l62.553,62.553h-20.669v4
		h20.802L941.192,732.378z M1006.077,643.692v20.089l-64.089-64.089h20.205v-4H942.12l63.956-63.955V551h4v-19.495l64.187,64.187
		h-19.674v4h19.807l-64.32,64.321v-20.321H1006.077z M1081.59,733.417v-19.764h-4v21.122l-65.083-65.084h18.571v-4h-18.437
		l64.95-64.951v20.951h4V602.1l63.591,63.592h-20.643v4h20.776L1081.59,733.417z M1147.538,643.692v20.115l-64.114-64.115h19.166v-4
		h-19.033l63.981-63.981V551h4v-19.469l64.161,64.161h-22.071v4h22.204l-64.294,64.295v-20.295H1147.538z M1220.628,732.379v-18.725
		h-4v18.725l-62.686-62.686h18.597v-4h-18.463l62.553-62.553v18.553h4v-18.554l62.553,62.554h-20.668v4h20.802L1220.628,732.379z
		 M1285.513,643.692v20.09l-64.089-64.09h20.204v-4h-20.071l63.956-63.956V551h4v-19.494l64.187,64.187h-21.776v4h21.909
		l-64.32,64.321v-20.321H1285.513z M1358.923,733.417v-19.763h-4v19.02l-62.981-62.981h18.571v-4h-18.437l62.848-62.848v18.848h4
		v-19.592l63.591,63.592h-20.642v4h20.776L1358.923,733.417z M1424.872,643.692v20.116l-64.115-64.116h19.166v-4h-19.033
		l63.982-63.982V551h4v-19.468l64.162,64.161h-22.072v4h22.205l-64.295,64.295v-20.295H1424.872z M1497.962,732.379v-18.725h-4
		v18.724l-62.687-62.686h18.597v-4h-18.463l62.553-62.553v18.553h4v-18.553l62.552,62.553h-20.668v4h20.802L1497.962,732.379z
		 M1562.846,643.692v20.09l-64.089-64.09h20.204v-4h-20.072l63.956-63.956V551h4v-19.494l64.188,64.186h-21.213v4h21.346
		l-64.32,64.32v-20.32H1562.846z M1636.82,733.417v-19.763h-4v19.583l-63.546-63.545h18.571v-4h-18.438l63.412-63.412v19.412h4
		V602.1l63.591,63.592h-20.642v4h20.776L1636.82,733.417z M1702.769,643.692v20.116l-64.115-64.116h19.166v-4h-19.033l63.982-63.982
		V551h4v-19.468l64.162,64.161h-22.072v4h22.205l-64.295,64.295v-20.295H1702.769z M1775.859,732.379v-18.725h-4v18.724
		l-62.687-62.686h18.597v-4h-18.463l62.553-62.553v18.553h4v-18.553l62.552,62.553h-20.668v4h20.802L1775.859,732.379z
		 M1840.744,643.692v20.09l-64.089-64.09h20.204v-4h-20.072l63.956-63.956V551h4v-19.494l64.188,64.186h-21.777v4h21.91
		l-64.32,64.32v-20.32H1840.744z M1977.745,665.692h-20.643v4h20.777l-63.726,63.725v-19.763h-4v19.019l-62.981-62.981h18.571v-4
		h-18.438l62.848-62.848v18.848h4v-19.592L1977.745,665.692z M1978.053,525h-20.951v4h21.469l-64.418,64.417v-19.725h-4v18.981
		L1846.48,529h19.264v-4h-18.745l63.155-63.155v18.809h4v-19.553L1978.053,525z M1977.745,384.692h-20.643v4h20.777l-63.726,63.725
		v-19.763h-4v19.019l-62.981-62.981h18.571v-4h-18.438l62.848-62.847v18.847h4v-19.591L1977.745,384.692z M1978.053,244.154h-20.951
		v4h21.315l-64.264,64.264v-19.725h-4v18.981l-63.52-63.52h19.11v-4h-18.745l63.155-63.155v18.809h4v-19.553L1978.053,244.154z
		 M1847.306,103.846l62.848-62.847v18.847h4V40.255l63.592,63.591h-20.643v4h20.777l-63.726,63.725v-19.763h-4v19.02l-62.981-62.981
		h18.571v-4H1847.306z M1844.744,129.846V109.66l64.148,64.148h-21.738v4h21.949l-64.359,64.359v-20.013h-4v19.782l-64.128-64.128
		h20.243v-4h-20.032l63.917-63.918v19.956H1844.744z M1709.306,103.846l62.553-62.552v18.552h4V41.293l62.552,62.553h-20.668v4
		h20.802l-62.686,62.687v-18.725h-4v18.725l-62.687-62.686h18.597v-4H1709.306z M1706.769,129.846v-20.161l64.123,64.122h-22.033v4
		h22.244l-64.334,64.333v-19.987h-4v19.808l-64.154-64.154h19.205v-4h-18.994l63.943-63.943v19.982H1706.769z M1569.409,103.846
		l63.412-63.411v19.411h4V40.255l63.591,63.591h-20.642v4h20.776l-63.725,63.725v-19.764h-4v19.584l-63.546-63.545h18.571v-4
		H1569.409z M1566.846,129.846V109.66l64.148,64.148h-21.174v4h21.385l-64.359,64.359v-20.013h-4v19.782l-64.128-64.128h20.243v-4
		h-20.032l63.917-63.918v19.956H1566.846z M1431.409,103.846l62.553-62.552v18.552h4V41.293l62.552,62.553h-20.668v4h20.802
		l-62.686,62.687v-18.725h-4v18.725l-62.687-62.686h18.597v-4H1431.409z M1428.872,129.846v-20.161l64.123,64.122h-22.033v4h22.244
		l-64.334,64.333v-19.987h-4v19.808l-64.154-64.154h19.205v-4h-18.994l63.943-63.943v19.982H1428.872z M1292.076,103.846
		l62.848-62.848v18.848h4V40.255l63.591,63.591h-20.642v4h20.776l-63.725,63.725v-19.764h-4v19.02l-62.981-62.982h18.571v-4
		H1292.076z M1289.513,129.846v-20.187l64.148,64.148h-21.737v4h21.948l-64.359,64.359v-20.013h-4v19.782l-64.128-64.128h20.243v-4
		h-20.032l63.917-63.917v19.956H1289.513z M1154.076,103.846l62.553-62.553v18.553h4V41.293l62.553,62.553h-20.668v4h20.802
		l-62.687,62.687v-18.726h-4v18.725l-62.686-62.687h18.597v-4H1154.076z M1151.538,129.846v-20.161l64.122,64.123h-22.032v4h22.243
		l-64.333,64.333v-19.987h-4v19.808l-64.153-64.154h19.205v-4h-18.994l63.942-63.943v19.981H1151.538z M1012.64,103.846l64.95-64.95
		v20.95h4V40.254l63.591,63.592h-20.643v4h20.776l-63.725,63.726v-19.764h-4v21.122l-65.083-65.084h18.571v-4H1012.64z
		 M1010.077,129.846v-20.187l64.148,64.149h-19.635v4h19.846l-64.359,64.359v-20.013h-4v19.782l-64.128-64.128h20.244v-4H942.16
		l63.917-63.917v19.955H1010.077z M874.64,103.846l62.552-62.553v18.553h4V41.294l62.553,62.553h-20.669v4h20.802l-62.687,62.687
		v-18.725h-4v18.725l-62.686-62.687h18.596v-4H874.64z M872.103,129.846v-20.161l64.122,64.123h-22.033v4h22.244l-64.333,64.334
		v-19.988h-4v19.807l-64.154-64.153h19.205v-4h-18.994l63.943-63.943v19.981H872.103z M735.306,103.846l62.848-62.847v18.847h4
		V40.255l63.592,63.591h-20.643v4h20.777l-63.725,63.725v-19.763h-4v19.02l-62.982-62.981h18.571v-4H735.306z M732.744,129.846
		V109.66l64.148,64.148h-21.738v4h21.949l-64.359,64.359v-20.013h-4v19.782l-64.128-64.128h20.243v-4h-20.032l63.917-63.918v19.956
		H732.744z M597.306,103.846l62.553-62.552v18.552h4V41.293l62.552,62.553h-20.668v4h20.802l-62.686,62.687v-18.725h-4v18.725
		l-62.687-62.686h18.597v-4H597.306z M594.769,129.846v-20.161l64.123,64.122h-22.033v4h22.244l-64.334,64.333v-19.987h-4v19.808
		l-64.154-64.154h19.205v-4h-18.994l63.943-63.943v19.982H594.769z M457.409,103.846l63.412-63.411v19.411h4V40.255l63.591,63.591
		h-20.642v4h20.776l-63.725,63.725v-19.764h-4v19.584l-63.546-63.545h18.571v-4H457.409z M454.846,129.846V109.66l64.148,64.148
		H497.82v4h21.385l-64.359,64.359v-20.013h-4v19.782l-64.128-64.128h20.243v-4h-20.033l63.917-63.918v19.956H454.846z
		 M319.409,103.846l62.553-62.553v18.553h4V41.293l62.552,62.553h-20.668v4h20.802l-62.686,62.687v-18.725h-4v18.725l-62.687-62.687
		h18.597v-4H319.409z M316.872,129.846v-20.161l64.122,64.122h-22.033v4h22.243l-64.333,64.333v-19.987h-4v19.808l-64.154-64.154
		h19.205v-4h-18.994l63.943-63.943v19.982H316.872z M180.076,103.846l62.847-62.847v18.847h4V40.255l63.591,63.591h-20.642v4h20.776
		l-63.725,63.725v-19.764h-4v19.02l-62.981-62.981h18.571v-4H180.076z M177.513,129.846v-20.187l64.148,64.148h-21.738v4h21.949
		l-64.359,64.359v-20.013h-4v19.782l-64.128-64.128h20.243v-4h-20.033l63.917-63.917v19.956H177.513z M108.628,59.846V41.293
		l62.553,62.553h-20.668v4h20.802l-62.687,62.687v-18.725h-4v18.725l-62.686-62.686h18.597v-4H42.076l62.553-62.553v18.553H108.628z
		"/>
</g>
</svg>
