<?xml version="1.0" encoding="utf-8"?>
<!-- Generator: Adobe Illustrator 24.0.2, SVG Export Plug-In . SVG Version: 6.00 Build 0)  -->
<svg version="1.1" id="Layer_3" xmlns="http://www.w3.org/2000/svg" xmlns:xlink="http://www.w3.org/1999/xlink" x="0px" y="0px"
	 viewBox="0 0 2016 774.61" style="enable-background:new 0 0 2016 774.61;" xml:space="preserve">
<style type="text/css">
	.st0{fill:#FFFFFF;}
</style>
<g>
	<polygon class="st0" points="868.1,59.85 872.1,59.85 872.1,37.85 893.1,37.85 893.1,33.85 872.1,33.85 872.1,11.85 868.1,11.85 
		868.1,33.85 845.1,33.85 845.1,37.85 868.1,37.85 	"/>
	<polygon class="st0" points="1006.08,59.85 1010.08,59.85 1010.08,37.85 1031.08,37.85 1031.08,33.85 1010.08,33.85 1010.08,11.85 
		1006.08,11.85 1006.08,33.85 983.08,33.85 983.08,37.85 1006.08,37.85 	"/>
	<polygon class="st0" points="798.15,103.85 775.15,103.85 775.15,107.85 798.15,107.85 798.15,129.85 802.15,129.85 802.15,107.85 
		823.15,107.85 823.15,103.85 802.15,103.85 802.15,81.85 798.15,81.85 	"/>
	<polygon class="st0" points="937.19,103.85 914.19,103.85 914.19,107.85 937.19,107.85 937.19,129.85 941.19,129.85 941.19,107.85 
		962.19,107.85 962.19,103.85 941.19,103.85 941.19,81.85 937.19,81.85 	"/>
	<polygon class="st0" points="868.1,173.81 845.1,173.81 845.1,177.81 868.1,177.81 868.1,199.81 872.1,199.81 872.1,177.81 
		893.1,177.81 893.1,173.81 872.1,173.81 872.1,151.81 868.1,151.81 	"/>
	<polygon class="st0" points="1006.08,173.81 983.08,173.81 983.08,177.81 1006.08,177.81 1006.08,199.81 1010.08,199.81 
		1010.08,177.81 1031.08,177.81 1031.08,173.81 1010.08,173.81 1010.08,151.81 1006.08,151.81 	"/>
	<polygon class="st0" points="798.15,244.15 775.15,244.15 775.15,248.15 798.15,248.15 798.15,270.15 802.15,270.15 802.15,248.15 
		823.15,248.15 823.15,244.15 802.15,244.15 802.15,222.15 798.15,222.15 	"/>
	<polygon class="st0" points="937.19,244.15 914.19,244.15 914.19,248.15 937.19,248.15 937.19,270.15 941.19,270.15 941.19,248.15 
		962.19,248.15 962.19,244.15 941.19,244.15 941.19,222.15 937.19,222.15 	"/>
	<polygon class="st0" points="590.77,59.85 594.77,59.85 594.77,37.85 615.77,37.85 615.77,33.85 594.77,33.85 594.77,11.85 
		590.77,11.85 590.77,33.85 567.77,33.85 567.77,37.85 590.77,37.85 	"/>
	<polygon class="st0" points="728.74,59.85 732.74,59.85 732.74,37.85 753.74,37.85 753.74,33.85 732.74,33.85 732.74,11.85 
		728.74,11.85 728.74,33.85 705.74,33.85 705.74,37.85 728.74,37.85 	"/>
	<polygon class="st0" points="520.82,103.85 497.82,103.85 497.82,107.85 520.82,107.85 520.82,129.85 524.82,129.85 524.82,107.85 
		545.82,107.85 545.82,103.85 524.82,103.85 524.82,81.85 520.82,81.85 	"/>
	<polygon class="st0" points="659.86,103.85 636.86,103.85 636.86,107.85 659.86,107.85 659.86,129.85 663.86,129.85 663.86,107.85 
		684.86,107.85 684.86,103.85 663.86,103.85 663.86,81.85 659.86,81.85 	"/>
	<polygon class="st0" points="590.77,173.81 567.77,173.81 567.77,177.81 590.77,177.81 590.77,199.81 594.77,199.81 594.77,177.81 
		615.77,177.81 615.77,173.81 594.77,173.81 594.77,151.81 590.77,151.81 	"/>
	<polygon class="st0" points="728.74,173.81 705.74,173.81 705.74,177.81 728.74,177.81 728.74,199.81 732.74,199.81 732.74,177.81 
		753.74,177.81 753.74,173.81 732.74,173.81 732.74,151.81 728.74,151.81 	"/>
	<polygon class="st0" points="520.82,244.15 497.82,244.15 497.82,248.15 520.82,248.15 520.82,270.15 524.82,270.15 524.82,248.15 
		545.82,248.15 545.82,244.15 524.82,244.15 524.82,222.15 520.82,222.15 	"/>
	<polygon class="st0" points="659.86,244.15 636.86,244.15 636.86,248.15 659.86,248.15 659.86,270.15 663.86,270.15 663.86,248.15 
		684.86,248.15 684.86,244.15 663.86,244.15 663.86,222.15 659.86,222.15 	"/>
	<polygon class="st0" points="312.87,59.85 316.87,59.85 316.87,37.85 337.87,37.85 337.87,33.85 316.87,33.85 316.87,11.85 
		312.87,11.85 312.87,33.85 289.87,33.85 289.87,37.85 312.87,37.85 	"/>
	<polygon class="st0" points="450.85,59.85 454.85,59.85 454.85,37.85 475.85,37.85 475.85,33.85 454.85,33.85 454.85,11.85 
		450.85,11.85 450.85,33.85 427.85,33.85 427.85,37.85 450.85,37.85 	"/>
	<polygon class="st0" points="242.92,103.85 219.92,103.85 219.92,107.85 242.92,107.85 242.92,129.85 246.92,129.85 246.92,107.85 
		267.92,107.85 267.92,103.85 246.92,103.85 246.92,81.85 242.92,81.85 	"/>
	<polygon class="st0" points="381.96,103.85 358.96,103.85 358.96,107.85 381.96,107.85 381.96,129.85 385.96,129.85 385.96,107.85 
		406.96,107.85 406.96,103.85 385.96,103.85 385.96,81.85 381.96,81.85 	"/>
	<polygon class="st0" points="312.87,173.81 289.87,173.81 289.87,177.81 312.87,177.81 312.87,199.81 316.87,199.81 316.87,177.81 
		337.87,177.81 337.87,173.81 316.87,173.81 316.87,151.81 312.87,151.81 	"/>
	<polygon class="st0" points="450.85,173.81 427.85,173.81 427.85,177.81 450.85,177.81 450.85,199.81 454.85,199.81 454.85,177.81 
		475.85,177.81 475.85,173.81 454.85,173.81 454.85,151.81 450.85,151.81 	"/>
	<polygon class="st0" points="242.92,244.15 219.92,244.15 219.92,248.15 242.92,248.15 242.92,270.15 246.92,270.15 246.92,248.15 
		267.92,248.15 267.92,244.15 246.92,244.15 246.92,222.15 242.92,222.15 	"/>
	<polygon class="st0" points="381.96,244.15 358.96,244.15 358.96,248.15 381.96,248.15 381.96,270.15 385.96,270.15 385.96,248.15 
		406.96,248.15 406.96,244.15 385.96,244.15 385.96,222.15 381.96,222.15 	"/>
	<polygon class="st0" points="35.54,59.85 39.54,59.85 39.54,37.85 60.54,37.85 60.54,33.85 39.54,33.85 39.54,11.85 35.54,11.85 
		35.54,33.85 12.54,33.85 12.54,37.85 35.54,37.85 	"/>
	<polygon class="st0" points="173.51,59.85 177.51,59.85 177.51,37.85 198.51,37.85 198.51,33.85 177.51,33.85 177.51,11.85 
		173.51,11.85 173.51,33.85 150.51,33.85 150.51,37.85 173.51,37.85 	"/>
	<polygon class="st0" points="104.63,103.85 81.63,103.85 81.63,107.85 104.63,107.85 104.63,129.85 108.63,129.85 108.63,107.85 
		129.63,107.85 129.63,103.85 108.63,103.85 108.63,81.85 104.63,81.85 	"/>
	<polygon class="st0" points="35.54,199.81 39.54,199.81 39.54,177.81 60.54,177.81 60.54,173.81 39.54,173.81 39.54,151.81 
		35.54,151.81 35.54,173.81 12.54,173.81 12.54,177.81 35.54,177.81 	"/>
	<polygon class="st0" points="173.51,173.81 150.51,173.81 150.51,177.81 173.51,177.81 173.51,199.81 177.51,199.81 177.51,177.81 
		198.51,177.81 198.51,173.81 177.51,173.81 177.51,151.81 173.51,151.81 	"/>
	<polygon class="st0" points="104.63,270.15 108.63,270.15 108.63,248.15 129.63,248.15 129.63,244.15 108.63,244.15 108.63,222.15 
		104.63,222.15 104.63,244.15 81.63,244.15 81.63,248.15 104.63,248.15 	"/>
	<polygon class="st0" points="868.1,314.69 845.1,314.69 845.1,318.69 868.1,318.69 868.1,340.69 872.1,340.69 872.1,318.69 
		893.1,318.69 893.1,314.69 872.1,314.69 872.1,292.69 868.1,292.69 	"/>
	<polygon class="st0" points="1006.08,314.69 983.08,314.69 983.08,318.69 1006.08,318.69 1006.08,340.69 1010.08,340.69 
		1010.08,318.69 1031.08,318.69 1031.08,314.69 1010.08,314.69 1010.08,292.69 1006.08,292.69 	"/>
	<polygon class="st0" points="802.15,388.69 823.15,388.69 823.15,384.69 802.15,384.69 802.15,362.69 798.15,362.69 798.15,384.69 
		775.15,384.69 775.15,388.69 798.15,388.69 798.15,410.69 802.15,410.69 	"/>
	<polygon class="st0" points="941.19,388.69 962.19,388.69 962.19,384.69 941.19,384.69 941.19,362.69 937.19,362.69 937.19,384.69 
		914.19,384.69 914.19,388.69 937.19,388.69 937.19,410.69 941.19,410.69 	"/>
	<polygon class="st0" points="872.1,458.65 893.1,458.65 893.1,454.65 872.1,454.65 872.1,432.65 868.1,432.65 868.1,454.65 
		845.1,454.65 845.1,458.65 868.1,458.65 868.1,480.65 872.1,480.65 	"/>
	<polygon class="st0" points="1010.08,458.65 1031.08,458.65 1031.08,454.65 1010.08,454.65 1010.08,432.65 1006.08,432.65 
		1006.08,454.65 983.08,454.65 983.08,458.65 1006.08,458.65 1006.08,480.65 1010.08,480.65 	"/>
	<polygon class="st0" points="802.15,529 823.15,529 823.15,525 802.15,525 802.15,503 798.15,503 798.15,525 775.15,525 
		775.15,529 798.15,529 798.15,551 802.15,551 	"/>
	<polygon class="st0" points="941.19,529 962.19,529 962.19,525 941.19,525 941.19,503 937.19,503 937.19,525 914.19,525 
		914.19,529 937.19,529 937.19,551 941.19,551 	"/>
	<polygon class="st0" points="590.77,314.69 567.77,314.69 567.77,318.69 590.77,318.69 590.77,340.69 594.77,340.69 594.77,318.69 
		615.77,318.69 615.77,314.69 594.77,314.69 594.77,292.69 590.77,292.69 	"/>
	<polygon class="st0" points="728.74,314.69 705.74,314.69 705.74,318.69 728.74,318.69 728.74,340.69 732.74,340.69 732.74,318.69 
		753.74,318.69 753.74,314.69 732.74,314.69 732.74,292.69 728.74,292.69 	"/>
	<polygon class="st0" points="524.82,388.69 545.82,388.69 545.82,384.69 524.82,384.69 524.82,362.69 520.82,362.69 520.82,384.69 
		497.82,384.69 497.82,388.69 520.82,388.69 520.82,410.69 524.82,410.69 	"/>
	<polygon class="st0" points="663.86,388.69 684.86,388.69 684.86,384.69 663.86,384.69 663.86,362.69 659.86,362.69 659.86,384.69 
		636.86,384.69 636.86,388.69 659.86,388.69 659.86,410.69 663.86,410.69 	"/>
	<polygon class="st0" points="594.77,458.65 615.77,458.65 615.77,454.65 594.77,454.65 594.77,432.65 590.77,432.65 590.77,454.65 
		567.77,454.65 567.77,458.65 590.77,458.65 590.77,480.65 594.77,480.65 	"/>
	<polygon class="st0" points="732.74,458.65 753.74,458.65 753.74,454.65 732.74,454.65 732.74,432.65 728.74,432.65 728.74,454.65 
		705.74,454.65 705.74,458.65 728.74,458.65 728.74,480.65 732.74,480.65 	"/>
	<polygon class="st0" points="524.82,529 545.82,529 545.82,525 524.82,525 524.82,503 520.82,503 520.82,525 497.82,525 
		497.82,529 520.82,529 520.82,551 524.82,551 	"/>
	<polygon class="st0" points="663.86,529 684.86,529 684.86,525 663.86,525 663.86,503 659.86,503 659.86,525 636.86,525 
		636.86,529 659.86,529 659.86,551 663.86,551 	"/>
	<polygon class="st0" points="312.87,314.69 289.87,314.69 289.87,318.69 312.87,318.69 312.87,340.69 316.87,340.69 316.87,318.69 
		337.87,318.69 337.87,314.69 316.87,314.69 316.87,292.69 312.87,292.69 	"/>
	<polygon class="st0" points="450.85,314.69 427.85,314.69 427.85,318.69 450.85,318.69 450.85,340.69 454.85,340.69 454.85,318.69 
		475.85,318.69 475.85,314.69 454.85,314.69 454.85,292.69 450.85,292.69 	"/>
	<polygon class="st0" points="246.92,388.69 267.92,388.69 267.92,384.69 246.92,384.69 246.92,362.69 242.92,362.69 242.92,384.69 
		219.92,384.69 219.92,388.69 242.92,388.69 242.92,410.69 246.92,410.69 	"/>
	<polygon class="st0" points="385.96,388.69 406.96,388.69 406.96,384.69 385.96,384.69 385.96,362.69 381.96,362.69 381.96,384.69 
		358.96,384.69 358.96,388.69 381.96,388.69 381.96,410.69 385.96,410.69 	"/>
	<polygon class="st0" points="316.87,458.65 337.87,458.65 337.87,454.65 316.87,454.65 316.87,432.65 312.87,432.65 312.87,454.65 
		289.87,454.65 289.87,458.65 312.87,458.65 312.87,480.65 316.87,480.65 	"/>
	<polygon class="st0" points="454.85,458.65 475.85,458.65 475.85,454.65 454.85,454.65 454.85,432.65 450.85,432.65 450.85,454.65 
		427.85,454.65 427.85,458.65 450.85,458.65 450.85,480.65 454.85,480.65 	"/>
	<polygon class="st0" points="246.92,529 267.92,529 267.92,525 246.92,525 246.92,503 242.92,503 242.92,525 219.92,525 
		219.92,529 242.92,529 242.92,551 246.92,551 	"/>
	<polygon class="st0" points="385.96,529 406.96,529 406.96,525 385.96,525 385.96,503 381.96,503 381.96,525 358.96,525 
		358.96,529 381.96,529 381.96,551 385.96,551 	"/>
	<polygon class="st0" points="35.54,340.69 39.54,340.69 39.54,318.69 60.54,318.69 60.54,314.69 39.54,314.69 39.54,292.69 
		35.54,292.69 35.54,314.69 12.54,314.69 12.54,318.69 35.54,318.69 	"/>
	<polygon class="st0" points="173.51,340.69 177.51,340.69 177.51,318.69 198.51,318.69 198.51,314.69 177.51,314.69 177.51,292.69 
		173.51,292.69 173.51,314.69 150.51,314.69 150.51,318.69 173.51,318.69 	"/>
	<polygon class="st0" points="104.63,410.69 108.63,410.69 108.63,388.69 129.63,388.69 129.63,384.69 108.63,384.69 108.63,362.69 
		104.63,362.69 104.63,384.69 81.63,384.69 81.63,388.69 104.63,388.69 	"/>
	<polygon class="st0" points="35.54,480.65 39.54,480.65 39.54,458.65 60.54,458.65 60.54,454.65 39.54,454.65 39.54,432.65 
		35.54,432.65 35.54,454.65 12.54,454.65 12.54,458.65 35.54,458.65 	"/>
	<polygon class="st0" points="177.51,458.65 198.51,458.65 198.51,454.65 177.51,454.65 177.51,432.65 173.51,432.65 173.51,454.65 
		150.51,454.65 150.51,458.65 173.51,458.65 173.51,480.65 177.51,480.65 	"/>
	<polygon class="st0" points="108.63,529 129.63,529 129.63,525 108.63,525 108.63,503 104.63,503 104.63,525 81.63,525 81.63,529 
		104.63,529 104.63,551 108.63,551 	"/>
	<polygon class="st0" points="872.1,599.69 893.1,599.69 893.1,595.69 872.1,595.69 872.1,573.69 868.1,573.69 868.1,595.69 
		845.1,595.69 845.1,599.69 868.1,599.69 868.1,621.69 872.1,621.69 	"/>
	<polygon class="st0" points="1010.08,599.69 1031.08,599.69 1031.08,595.69 1010.08,595.69 1010.08,573.69 1006.08,573.69 
		1006.08,595.69 983.08,595.69 983.08,599.69 1006.08,599.69 1006.08,621.69 1010.08,621.69 	"/>
	<polygon class="st0" points="802.15,669.69 823.15,669.69 823.15,665.69 802.15,665.69 802.15,643.69 798.15,643.69 798.15,665.69 
		775.15,665.69 775.15,669.69 798.15,669.69 798.15,691.69 802.15,691.69 	"/>
	<polygon class="st0" points="941.19,669.69 962.19,669.69 962.19,665.69 941.19,665.69 941.19,643.69 937.19,643.69 937.19,665.69 
		914.19,665.69 914.19,669.69 937.19,669.69 937.19,691.69 941.19,691.69 	"/>
	<polygon class="st0" points="872.1,713.65 868.1,713.65 868.1,735.65 845.1,735.65 845.1,739.65 868.1,739.65 868.1,761.65 
		872.1,761.65 872.1,739.65 893.1,739.65 893.1,735.65 872.1,735.65 	"/>
	<polygon class="st0" points="1010.08,713.65 1006.08,713.65 1006.08,735.65 983.08,735.65 983.08,739.65 1006.08,739.65 
		1006.08,761.65 1010.08,761.65 1010.08,739.65 1031.08,739.65 1031.08,735.65 1010.08,735.65 	"/>
	<polygon class="st0" points="594.77,599.69 615.77,599.69 615.77,595.69 594.77,595.69 594.77,573.69 590.77,573.69 590.77,595.69 
		567.77,595.69 567.77,599.69 590.77,599.69 590.77,621.69 594.77,621.69 	"/>
	<polygon class="st0" points="732.74,599.69 753.74,599.69 753.74,595.69 732.74,595.69 732.74,573.69 728.74,573.69 728.74,595.69 
		705.74,595.69 705.74,599.69 728.74,599.69 728.74,621.69 732.74,621.69 	"/>
	<polygon class="st0" points="524.82,669.69 545.82,669.69 545.82,665.69 524.82,665.69 524.82,643.69 520.82,643.69 520.82,665.69 
		497.82,665.69 497.82,669.69 520.82,669.69 520.82,691.69 524.82,691.69 	"/>
	<polygon class="st0" points="663.86,669.69 684.86,669.69 684.86,665.69 663.86,665.69 663.86,643.69 659.86,643.69 659.86,665.69 
		636.86,665.69 636.86,669.69 659.86,669.69 659.86,691.69 663.86,691.69 	"/>
	<polygon class="st0" points="594.77,713.65 590.77,713.65 590.77,735.65 567.77,735.65 567.77,739.65 590.77,739.65 590.77,761.65 
		594.77,761.65 594.77,739.65 615.77,739.65 615.77,735.65 594.77,735.65 	"/>
	<polygon class="st0" points="732.74,713.65 728.74,713.65 728.74,735.65 705.74,735.65 705.74,739.65 728.74,739.65 728.74,761.65 
		732.74,761.65 732.74,739.65 753.74,739.65 753.74,735.65 732.74,735.65 	"/>
	<polygon class="st0" points="316.87,599.69 337.87,599.69 337.87,595.69 316.87,595.69 316.87,573.69 312.87,573.69 312.87,595.69 
		289.87,595.69 289.87,599.69 312.87,599.69 312.87,621.69 316.87,621.69 	"/>
	<polygon class="st0" points="454.85,599.69 475.85,599.69 475.85,595.69 454.85,595.69 454.85,573.69 450.85,573.69 450.85,595.69 
		427.85,595.69 427.85,599.69 450.85,599.69 450.85,621.69 454.85,621.69 	"/>
	<polygon class="st0" points="246.92,669.69 267.92,669.69 267.92,665.69 246.92,665.69 246.92,643.69 242.92,643.69 242.92,665.69 
		219.92,665.69 219.92,669.69 242.92,669.69 242.92,691.69 246.92,691.69 	"/>
	<polygon class="st0" points="385.96,669.69 406.96,669.69 406.96,665.69 385.96,665.69 385.96,643.69 381.96,643.69 381.96,665.69 
		358.96,665.69 358.96,669.69 381.96,669.69 381.96,691.69 385.96,691.69 	"/>
	<polygon class="st0" points="316.87,713.65 312.87,713.65 312.87,735.65 289.87,735.65 289.87,739.65 312.87,739.65 312.87,761.65 
		316.87,761.65 316.87,739.65 337.87,739.65 337.87,735.65 316.87,735.65 	"/>
	<polygon class="st0" points="454.85,713.65 450.85,713.65 450.85,735.65 427.85,735.65 427.85,739.65 450.85,739.65 450.85,761.65 
		454.85,761.65 454.85,739.65 475.85,739.65 475.85,735.65 454.85,735.65 	"/>
	<polygon class="st0" points="39.54,599.69 60.54,599.69 60.54,595.69 39.54,595.69 39.54,573.69 35.54,573.69 35.54,595.69 
		12.54,595.69 12.54,599.69 35.54,599.69 35.54,621.69 39.54,621.69 	"/>
	<polygon class="st0" points="177.51,599.69 198.51,599.69 198.51,595.69 177.51,595.69 177.51,573.69 173.51,573.69 173.51,595.69 
		150.51,595.69 150.51,599.69 173.51,599.69 173.51,621.69 177.51,621.69 	"/>
	<polygon class="st0" points="108.63,669.69 129.63,669.69 129.63,665.69 108.63,665.69 108.63,643.69 104.63,643.69 104.63,665.69 
		81.63,665.69 81.63,669.69 104.63,669.69 104.63,691.69 108.63,691.69 	"/>
	<polygon class="st0" points="39.54,713.65 35.54,713.65 35.54,735.65 12.54,735.65 12.54,739.65 35.54,739.65 35.54,761.65 
		39.54,761.65 39.54,739.65 60.54,739.65 60.54,735.65 39.54,735.65 	"/>
	<polygon class="st0" points="177.51,713.65 173.51,713.65 173.51,735.65 150.51,735.65 150.51,739.65 173.51,739.65 173.51,761.65 
		177.51,761.65 177.51,739.65 198.51,739.65 198.51,735.65 177.51,735.65 	"/>
	<polygon class="st0" points="1980.1,59.85 1984.1,59.85 1984.1,37.85 2005.1,37.85 2005.1,33.85 1984.1,33.85 1984.1,11.85 
		1980.1,11.85 1980.1,33.85 1957.1,33.85 1957.1,37.85 1980.1,37.85 	"/>
	<polygon class="st0" points="1910.15,103.85 1887.15,103.85 1887.15,107.85 1910.15,107.85 1910.15,129.85 1914.15,129.85 
		1914.15,107.85 1935.15,107.85 1935.15,103.85 1914.15,103.85 1914.15,81.85 1910.15,81.85 	"/>
	<polygon class="st0" points="1984.1,151.81 1980.1,151.81 1980.1,173.81 1957.1,173.81 1957.1,177.81 1980.1,177.81 1980.1,199.81 
		1984.1,199.81 1984.1,177.81 2005.1,177.81 2005.1,173.81 1984.1,173.81 	"/>
	<polygon class="st0" points="1914.15,222.15 1910.15,222.15 1910.15,244.15 1887.15,244.15 1887.15,248.15 1910.15,248.15 
		1910.15,270.15 1914.15,270.15 1914.15,248.15 1935.15,248.15 1935.15,244.15 1914.15,244.15 	"/>
	<polygon class="st0" points="1702.77,59.85 1706.77,59.85 1706.77,37.85 1727.77,37.85 1727.77,33.85 1706.77,33.85 1706.77,11.85 
		1702.77,11.85 1702.77,33.85 1679.77,33.85 1679.77,37.85 1702.77,37.85 	"/>
	<polygon class="st0" points="1840.74,59.85 1844.74,59.85 1844.74,37.85 1865.74,37.85 1865.74,33.85 1844.74,33.85 1844.74,11.85 
		1840.74,11.85 1840.74,33.85 1817.74,33.85 1817.74,37.85 1840.74,37.85 	"/>
	<polygon class="st0" points="1632.82,103.85 1609.82,103.85 1609.82,107.85 1632.82,107.85 1632.82,129.85 1636.82,129.85 
		1636.82,107.85 1657.82,107.85 1657.82,103.85 1636.82,103.85 1636.82,81.85 1632.82,81.85 	"/>
	<polygon class="st0" points="1771.86,103.85 1748.86,103.85 1748.86,107.85 1771.86,107.85 1771.86,129.85 1775.86,129.85 
		1775.86,107.85 1796.86,107.85 1796.86,103.85 1775.86,103.85 1775.86,81.85 1771.86,81.85 	"/>
	<polygon class="st0" points="1702.77,173.81 1679.77,173.81 1679.77,177.81 1702.77,177.81 1702.77,199.81 1706.77,199.81 
		1706.77,177.81 1727.77,177.81 1727.77,173.81 1706.77,173.81 1706.77,151.81 1702.77,151.81 	"/>
	<polygon class="st0" points="1840.74,173.81 1817.74,173.81 1817.74,177.81 1840.74,177.81 1840.74,199.81 1844.74,199.81 
		1844.74,177.81 1865.74,177.81 1865.74,173.81 1844.74,173.81 1844.74,151.81 1840.74,151.81 	"/>
	<polygon class="st0" points="1632.82,244.15 1609.82,244.15 1609.82,248.15 1632.82,248.15 1632.82,270.15 1636.82,270.15 
		1636.82,248.15 1657.82,248.15 1657.82,244.15 1636.82,244.15 1636.82,222.15 1632.82,222.15 	"/>
	<polygon class="st0" points="1771.86,244.15 1748.86,244.15 1748.86,248.15 1771.86,248.15 1771.86,270.15 1775.86,270.15 
		1775.86,248.15 1796.86,248.15 1796.86,244.15 1775.86,244.15 1775.86,222.15 1771.86,222.15 	"/>
	<polygon class="st0" points="1424.87,59.85 1428.87,59.85 1428.87,37.85 1449.87,37.85 1449.87,33.85 1428.87,33.85 1428.87,11.85 
		1424.87,11.85 1424.87,33.85 1401.87,33.85 1401.87,37.85 1424.87,37.85 	"/>
	<polygon class="st0" points="1562.85,59.85 1566.85,59.85 1566.85,37.85 1587.85,37.85 1587.85,33.85 1566.85,33.85 1566.85,11.85 
		1562.85,11.85 1562.85,33.85 1539.85,33.85 1539.85,37.85 1562.85,37.85 	"/>
	<polygon class="st0" points="1354.92,103.85 1331.92,103.85 1331.92,107.85 1354.92,107.85 1354.92,129.85 1358.92,129.85 
		1358.92,107.85 1379.92,107.85 1379.92,103.85 1358.92,103.85 1358.92,81.85 1354.92,81.85 	"/>
	<polygon class="st0" points="1493.96,103.85 1470.96,103.85 1470.96,107.85 1493.96,107.85 1493.96,129.85 1497.96,129.85 
		1497.96,107.85 1518.96,107.85 1518.96,103.85 1497.96,103.85 1497.96,81.85 1493.96,81.85 	"/>
	<polygon class="st0" points="1424.87,173.81 1401.87,173.81 1401.87,177.81 1424.87,177.81 1424.87,199.81 1428.87,199.81 
		1428.87,177.81 1449.87,177.81 1449.87,173.81 1428.87,173.81 1428.87,151.81 1424.87,151.81 	"/>
	<polygon class="st0" points="1562.85,173.81 1539.85,173.81 1539.85,177.81 1562.85,177.81 1562.85,199.81 1566.85,199.81 
		1566.85,177.81 1587.85,177.81 1587.85,173.81 1566.85,173.81 1566.85,151.81 1562.85,151.81 	"/>
	<polygon class="st0" points="1354.92,244.15 1331.92,244.15 1331.92,248.15 1354.92,248.15 1354.92,270.15 1358.92,270.15 
		1358.92,248.15 1379.92,248.15 1379.92,244.15 1358.92,244.15 1358.92,222.15 1354.92,222.15 	"/>
	<polygon class="st0" points="1493.96,244.15 1470.96,244.15 1470.96,248.15 1493.96,248.15 1493.96,270.15 1497.96,270.15 
		1497.96,248.15 1518.96,248.15 1518.96,244.15 1497.96,244.15 1497.96,222.15 1493.96,222.15 	"/>
	<polygon class="st0" points="1147.54,59.85 1151.54,59.85 1151.54,37.85 1172.54,37.85 1172.54,33.85 1151.54,33.85 1151.54,11.85 
		1147.54,11.85 1147.54,33.85 1124.54,33.85 1124.54,37.85 1147.54,37.85 	"/>
	<polygon class="st0" points="1285.51,59.85 1289.51,59.85 1289.51,37.85 1310.51,37.85 1310.51,33.85 1289.51,33.85 1289.51,11.85 
		1285.51,11.85 1285.51,33.85 1262.51,33.85 1262.51,37.85 1285.51,37.85 	"/>
	<polygon class="st0" points="1077.59,103.85 1054.59,103.85 1054.59,107.85 1077.59,107.85 1077.59,129.85 1081.59,129.85 
		1081.59,107.85 1102.59,107.85 1102.59,103.85 1081.59,103.85 1081.59,81.85 1077.59,81.85 	"/>
	<polygon class="st0" points="1216.63,103.85 1193.63,103.85 1193.63,107.85 1216.63,107.85 1216.63,129.85 1220.63,129.85 
		1220.63,107.85 1241.63,107.85 1241.63,103.85 1220.63,103.85 1220.63,81.85 1216.63,81.85 	"/>
	<polygon class="st0" points="1147.54,173.81 1124.54,173.81 1124.54,177.81 1147.54,177.81 1147.54,199.81 1151.54,199.81 
		1151.54,177.81 1172.54,177.81 1172.54,173.81 1151.54,173.81 1151.54,151.81 1147.54,151.81 	"/>
	<polygon class="st0" points="1285.51,173.81 1262.51,173.81 1262.51,177.81 1285.51,177.81 1285.51,199.81 1289.51,199.81 
		1289.51,177.81 1310.51,177.81 1310.51,173.81 1289.51,173.81 1289.51,151.81 1285.51,151.81 	"/>
	<polygon class="st0" points="1077.59,244.15 1054.59,244.15 1054.59,248.15 1077.59,248.15 1077.59,270.15 1081.59,270.15 
		1081.59,248.15 1102.59,248.15 1102.59,244.15 1081.59,244.15 1081.59,222.15 1077.59,222.15 	"/>
	<polygon class="st0" points="1216.63,244.15 1193.63,244.15 1193.63,248.15 1216.63,248.15 1216.63,270.15 1220.63,270.15 
		1220.63,248.15 1241.63,248.15 1241.63,244.15 1220.63,244.15 1220.63,222.15 1216.63,222.15 	"/>
	<polygon class="st0" points="1984.1,292.69 1980.1,292.69 1980.1,314.69 1957.1,314.69 1957.1,318.69 1980.1,318.69 1980.1,340.69 
		1984.1,340.69 1984.1,318.69 2005.1,318.69 2005.1,314.69 1984.1,314.69 	"/>
	<polygon class="st0" points="1914.15,362.69 1910.15,362.69 1910.15,384.69 1887.15,384.69 1887.15,388.69 1910.15,388.69 
		1910.15,410.69 1914.15,410.69 1914.15,388.69 1935.15,388.69 1935.15,384.69 1914.15,384.69 	"/>
	<polygon class="st0" points="1984.1,432.65 1980.1,432.65 1980.1,454.65 1957.1,454.65 1957.1,458.65 1980.1,458.65 1980.1,480.65 
		1984.1,480.65 1984.1,458.65 2005.1,458.65 2005.1,454.65 1984.1,454.65 	"/>
	<polygon class="st0" points="1914.15,503 1910.15,503 1910.15,525 1887.15,525 1887.15,529 1910.15,529 1910.15,551 1914.15,551 
		1914.15,529 1935.15,529 1935.15,525 1914.15,525 	"/>
	<polygon class="st0" points="1702.77,314.69 1679.77,314.69 1679.77,318.69 1702.77,318.69 1702.77,340.69 1706.77,340.69 
		1706.77,318.69 1727.77,318.69 1727.77,314.69 1706.77,314.69 1706.77,292.69 1702.77,292.69 	"/>
	<polygon class="st0" points="1844.74,292.69 1840.74,292.69 1840.74,314.69 1817.74,314.69 1817.74,318.69 1840.74,318.69 
		1840.74,340.69 1844.74,340.69 1844.74,318.69 1865.74,318.69 1865.74,314.69 1844.74,314.69 	"/>
	<polygon class="st0" points="1636.82,388.69 1657.82,388.69 1657.82,384.69 1636.82,384.69 1636.82,362.69 1632.82,362.69 
		1632.82,384.69 1609.82,384.69 1609.82,388.69 1632.82,388.69 1632.82,410.69 1636.82,410.69 	"/>
	<polygon class="st0" points="1775.86,388.69 1796.86,388.69 1796.86,384.69 1775.86,384.69 1775.86,362.69 1771.86,362.69 
		1771.86,384.69 1748.86,384.69 1748.86,388.69 1771.86,388.69 1771.86,410.69 1775.86,410.69 	"/>
	<polygon class="st0" points="1706.77,458.65 1727.77,458.65 1727.77,454.65 1706.77,454.65 1706.77,432.65 1702.77,432.65 
		1702.77,454.65 1679.77,454.65 1679.77,458.65 1702.77,458.65 1702.77,480.65 1706.77,480.65 	"/>
	<polygon class="st0" points="1844.74,432.65 1840.74,432.65 1840.74,454.65 1817.74,454.65 1817.74,458.65 1840.74,458.65 
		1840.74,480.65 1844.74,480.65 1844.74,458.65 1865.74,458.65 1865.74,454.65 1844.74,454.65 	"/>
	<polygon class="st0" points="1636.82,529 1657.82,529 1657.82,525 1636.82,525 1636.82,503 1632.82,503 1632.82,525 1609.82,525 
		1609.82,529 1632.82,529 1632.82,551 1636.82,551 	"/>
	<polygon class="st0" points="1775.86,529 1796.86,529 1796.86,525 1775.86,525 1775.86,503 1771.86,503 1771.86,525 1748.86,525 
		1748.86,529 1771.86,529 1771.86,551 1775.86,551 	"/>
	<polygon class="st0" points="1424.87,314.69 1401.87,314.69 1401.87,318.69 1424.87,318.69 1424.87,340.69 1428.87,340.69 
		1428.87,318.69 1449.87,318.69 1449.87,314.69 1428.87,314.69 1428.87,292.69 1424.87,292.69 	"/>
	<polygon class="st0" points="1562.85,314.69 1539.85,314.69 1539.85,318.69 1562.85,318.69 1562.85,340.69 1566.85,340.69 
		1566.85,318.69 1587.85,318.69 1587.85,314.69 1566.85,314.69 1566.85,292.69 1562.85,292.69 	"/>
	<polygon class="st0" points="1358.92,388.69 1379.92,388.69 1379.92,384.69 1358.92,384.69 1358.92,362.69 1354.92,362.69 
		1354.92,384.69 1331.92,384.69 1331.92,388.69 1354.92,388.69 1354.92,410.69 1358.92,410.69 	"/>
	<polygon class="st0" points="1497.96,388.69 1518.96,388.69 1518.96,384.69 1497.96,384.69 1497.96,362.69 1493.96,362.69 
		1493.96,384.69 1470.96,384.69 1470.96,388.69 1493.96,388.69 1493.96,410.69 1497.96,410.69 	"/>
	<polygon class="st0" points="1428.87,458.65 1449.87,458.65 1449.87,454.65 1428.87,454.65 1428.87,432.65 1424.87,432.65 
		1424.87,454.65 1401.87,454.65 1401.87,458.65 1424.87,458.65 1424.87,480.65 1428.87,480.65 	"/>
	<polygon class="st0" points="1566.85,458.65 1587.85,458.65 1587.85,454.65 1566.85,454.65 1566.85,432.65 1562.85,432.65 
		1562.85,454.65 1539.85,454.65 1539.85,458.65 1562.85,458.65 1562.85,480.65 1566.85,480.65 	"/>
	<polygon class="st0" points="1358.92,529 1379.92,529 1379.92,525 1358.92,525 1358.92,503 1354.92,503 1354.92,525 1331.92,525 
		1331.92,529 1354.92,529 1354.92,551 1358.92,551 	"/>
	<polygon class="st0" points="1497.96,529 1518.96,529 1518.96,525 1497.96,525 1497.96,503 1493.96,503 1493.96,525 1470.96,525 
		1470.96,529 1493.96,529 1493.96,551 1497.96,551 	"/>
	<polygon class="st0" points="1147.54,314.69 1124.54,314.69 1124.54,318.69 1147.54,318.69 1147.54,340.69 1151.54,340.69 
		1151.54,318.69 1172.54,318.69 1172.54,314.69 1151.54,314.69 1151.54,292.69 1147.54,292.69 	"/>
	<polygon class="st0" points="1285.51,314.69 1262.51,314.69 1262.51,318.69 1285.51,318.69 1285.51,340.69 1289.51,340.69 
		1289.51,318.69 1310.51,318.69 1310.51,314.69 1289.51,314.69 1289.51,292.69 1285.51,292.69 	"/>
	<polygon class="st0" points="1077.59,384.69 1054.59,384.69 1054.59,388.69 1077.59,388.69 1077.59,410.69 1081.59,410.69 
		1081.59,388.69 1102.59,388.69 1102.59,384.69 1081.59,384.69 1081.59,362.69 1077.59,362.69 	"/>
	<polygon class="st0" points="1220.63,388.69 1241.63,388.69 1241.63,384.69 1220.63,384.69 1220.63,362.69 1216.63,362.69 
		1216.63,384.69 1193.63,384.69 1193.63,388.69 1216.63,388.69 1216.63,410.69 1220.63,410.69 	"/>
	<polygon class="st0" points="1151.54,458.65 1172.54,458.65 1172.54,454.65 1151.54,454.65 1151.54,432.65 1147.54,432.65 
		1147.54,454.65 1124.54,454.65 1124.54,458.65 1147.54,458.65 1147.54,480.65 1151.54,480.65 	"/>
	<polygon class="st0" points="1289.51,458.65 1310.51,458.65 1310.51,454.65 1289.51,454.65 1289.51,432.65 1285.51,432.65 
		1285.51,454.65 1262.51,454.65 1262.51,458.65 1285.51,458.65 1285.51,480.65 1289.51,480.65 	"/>
	<polygon class="st0" points="1081.59,529 1102.59,529 1102.59,525 1081.59,525 1081.59,503 1077.59,503 1077.59,525 1054.59,525 
		1054.59,529 1077.59,529 1077.59,551 1081.59,551 	"/>
	<polygon class="st0" points="1220.63,529 1241.63,529 1241.63,525 1220.63,525 1220.63,503 1216.63,503 1216.63,525 1193.63,525 
		1193.63,529 1216.63,529 1216.63,551 1220.63,551 	"/>
	<polygon class="st0" points="1984.1,573.69 1980.1,573.69 1980.1,595.69 1957.1,595.69 1957.1,599.69 1980.1,599.69 1980.1,621.69 
		1984.1,621.69 1984.1,599.69 2005.1,599.69 2005.1,595.69 1984.1,595.69 	"/>
	<polygon class="st0" points="1914.15,669.69 1935.15,669.69 1935.15,665.69 1914.15,665.69 1914.15,643.69 1910.15,643.69 
		1910.15,665.69 1887.15,665.69 1887.15,669.69 1910.15,669.69 1910.15,691.69 1914.15,691.69 	"/>
	<polygon class="st0" points="1984.1,713.65 1980.1,713.65 1980.1,735.65 1957.1,735.65 1957.1,739.65 1980.1,739.65 1980.1,761.65 
		1984.1,761.65 1984.1,739.65 2005.1,739.65 2005.1,735.65 1984.1,735.65 	"/>
	<polygon class="st0" points="1706.77,599.69 1727.77,599.69 1727.77,595.69 1706.77,595.69 1706.77,573.69 1702.77,573.69 
		1702.77,595.69 1679.77,595.69 1679.77,599.69 1702.77,599.69 1702.77,621.69 1706.77,621.69 	"/>
	<polygon class="st0" points="1844.74,599.69 1865.74,599.69 1865.74,595.69 1844.74,595.69 1844.74,573.69 1840.74,573.69 
		1840.74,595.69 1817.74,595.69 1817.74,599.69 1840.74,599.69 1840.74,621.69 1844.74,621.69 	"/>
	<polygon class="st0" points="1636.82,669.69 1657.82,669.69 1657.82,665.69 1636.82,665.69 1636.82,643.69 1632.82,643.69 
		1632.82,665.69 1609.82,665.69 1609.82,669.69 1632.82,669.69 1632.82,691.69 1636.82,691.69 	"/>
	<polygon class="st0" points="1775.86,669.69 1796.86,669.69 1796.86,665.69 1775.86,665.69 1775.86,643.69 1771.86,643.69 
		1771.86,665.69 1748.86,665.69 1748.86,669.69 1771.86,669.69 1771.86,691.69 1775.86,691.69 	"/>
	<polygon class="st0" points="1706.77,713.65 1702.77,713.65 1702.77,735.65 1679.77,735.65 1679.77,739.65 1702.77,739.65 
		1702.77,761.65 1706.77,761.65 1706.77,739.65 1727.77,739.65 1727.77,735.65 1706.77,735.65 	"/>
	<polygon class="st0" points="1844.74,713.65 1840.74,713.65 1840.74,735.65 1817.74,735.65 1817.74,739.65 1840.74,739.65 
		1840.74,761.65 1844.74,761.65 1844.74,739.65 1865.74,739.65 1865.74,735.65 1844.74,735.65 	"/>
	<polygon class="st0" points="1428.87,599.69 1449.87,599.69 1449.87,595.69 1428.87,595.69 1428.87,573.69 1424.87,573.69 
		1424.87,595.69 1401.87,595.69 1401.87,599.69 1424.87,599.69 1424.87,621.69 1428.87,621.69 	"/>
	<polygon class="st0" points="1566.85,599.69 1587.85,599.69 1587.85,595.69 1566.85,595.69 1566.85,573.69 1562.85,573.69 
		1562.85,595.69 1539.85,595.69 1539.85,599.69 1562.85,599.69 1562.85,621.69 1566.85,621.69 	"/>
	<polygon class="st0" points="1358.92,669.69 1379.92,669.69 1379.92,665.69 1358.92,665.69 1358.92,643.69 1354.92,643.69 
		1354.92,665.69 1331.92,665.69 1331.92,669.69 1354.92,669.69 1354.92,691.69 1358.92,691.69 	"/>
	<polygon class="st0" points="1497.96,669.69 1518.96,669.69 1518.96,665.69 1497.96,665.69 1497.96,643.69 1493.96,643.69 
		1493.96,665.69 1470.96,665.69 1470.96,669.69 1493.96,669.69 1493.96,691.69 1497.96,691.69 	"/>
	<polygon class="st0" points="1428.87,713.65 1424.87,713.65 1424.87,735.65 1401.87,735.65 1401.87,739.65 1424.87,739.65 
		1424.87,761.65 1428.87,761.65 1428.87,739.65 1449.87,739.65 1449.87,735.65 1428.87,735.65 	"/>
	<polygon class="st0" points="1566.85,713.65 1562.85,713.65 1562.85,735.65 1539.85,735.65 1539.85,739.65 1562.85,739.65 
		1562.85,761.65 1566.85,761.65 1566.85,739.65 1587.85,739.65 1587.85,735.65 1566.85,735.65 	"/>
	<polygon class="st0" points="1151.54,599.69 1172.54,599.69 1172.54,595.69 1151.54,595.69 1151.54,573.69 1147.54,573.69 
		1147.54,595.69 1124.54,595.69 1124.54,599.69 1147.54,599.69 1147.54,621.69 1151.54,621.69 	"/>
	<polygon class="st0" points="1289.51,599.69 1310.51,599.69 1310.51,595.69 1289.51,595.69 1289.51,573.69 1285.51,573.69 
		1285.51,595.69 1262.51,595.69 1262.51,599.69 1285.51,599.69 1285.51,621.69 1289.51,621.69 	"/>
	<polygon class="st0" points="1081.59,669.69 1102.59,669.69 1102.59,665.69 1081.59,665.69 1081.59,643.69 1077.59,643.69 
		1077.59,665.69 1054.59,665.69 1054.59,669.69 1077.59,669.69 1077.59,691.69 1081.59,691.69 	"/>
	<polygon class="st0" points="1220.63,669.69 1241.63,669.69 1241.63,665.69 1220.63,665.69 1220.63,643.69 1216.63,643.69 
		1216.63,665.69 1193.63,665.69 1193.63,669.69 1216.63,669.69 1216.63,691.69 1220.63,691.69 	"/>
	<polygon class="st0" points="1151.54,713.65 1147.54,713.65 1147.54,735.65 1124.54,735.65 1124.54,739.65 1147.54,739.65 
		1147.54,761.65 1151.54,761.65 1151.54,739.65 1172.54,739.65 1172.54,735.65 1151.54,735.65 	"/>
	<polygon class="st0" points="1289.51,713.65 1285.51,713.65 1285.51,735.65 1262.51,735.65 1262.51,739.65 1285.51,739.65 
		1285.51,761.65 1289.51,761.65 1289.51,739.65 1310.51,739.65 1310.51,735.65 1289.51,735.65 	"/>
</g>
<g>
	<path class="st0" d="M2013.47,774.61"/>
	<path class="st0" d="M103.7,33.85H81.63v4h22.21l-64.29,64.29V81.85h-4v20.11L0,66.42v4.24l33.18,33.18H12.54v4h20.78L0,141.16
		v4.24l35.54-35.54v19.98h4v-20.16l64.12,64.12H81.63v4h22.24l-64.33,64.33v-19.99h-4v19.81L0,206.42v4.24l33.49,33.49H12.54v4
		h21.31L0,282.01v4.24l35.54-35.54v19.44h4v-19.62l64.16,64.16H81.63v4h22.21l-64.29,64.3v-20.3h-4v20.11L0,347.27v4.24l33.18,33.18
		H12.54v4h20.78L0,422.01v4.24l35.54-35.54v19.98h4v-20.16l64.12,64.12H81.63v4h22.24l-64.33,64.33V503h-4v19.81L0,487.27v4.24
		L33.49,525H12.54v4h21.47L0,563.01v4.24l35.54-35.54V551h4v-19.47l64.16,64.16H81.63v4h22.21l-64.29,64.29v-20.29h-4v20.11
		L0,628.27v4.24l33.18,33.18H12.54v4h20.78L0,703.01v4.24l35.54-35.54v19.98h4v-20.16l64.12,64.12H81.63v4h22.24l-34.96,34.96h4.24
		l31.48-31.48v18.52h4v-18.52l31.48,31.48h4.24l-34.96-34.96h20.24v-4H109.6l63.92-63.92v19.96h4v-20.19l64.15,64.15h-21.74v4h21.95
		l-34.96,34.96h4.24l31.77-31.77v18.81h4V742.1l32.51,32.52h4.24l-34.96-34.96h19.2v-4h-18.99l63.94-63.94v19.98h4v-20.16
		l64.12,64.12h-22.03v4h22.24l-34.96,34.96h4.24l31.48-31.48v18.52h4v-18.52l31.48,31.48h4.24l-34.96-34.96h20.24v-4h-20.03
		l63.92-63.92v19.96h4v-20.19L519,735.65h-21.18v4h21.38l-34.96,34.96h4.24l32.33-32.34v19.37h4V742.1l32.51,32.52h4.24
		l-34.96-34.96h19.2v-4h-18.99l63.94-63.94v19.98h4v-20.16l64.12,64.12h-22.03v4h22.24l-34.96,34.96h4.24l31.48-31.48v18.51h4
		v-18.52l31.48,31.48h4.24l-34.96-34.96h20.24v-4h-20.03l63.92-63.92v19.96h4v-20.19l64.15,64.15h-21.74v4h21.95l-34.96,34.96h4.24
		l31.77-31.77v18.81h4V742.1l32.52,32.52h4.24l-34.96-34.96h19.21v-4h-18.99l63.94-63.94v19.98h4v-20.16l64.12,64.12h-22.03v4h22.24
		l-34.96,34.96h4.24l31.48-31.48v18.52h4v-18.52l31.48,31.48h4.24l-34.96-34.96h20.24v-4h-20.03l63.92-63.92v19.96h4V671.5
		l64.15,64.15h-19.64v4h19.85l-34.96,34.96h4.24l33.87-33.87v20.91h4V742.1l32.52,32.52h4.24l-34.96-34.96h19.2v-4h-18.99
		l63.94-63.94v19.98h4v-20.16l64.12,64.12h-22.03v4h22.24l-34.96,34.96h4.24l31.48-31.48v18.52h4v-18.52l31.48,31.48h4.24
		l-34.96-34.96h20.24v-4h-20.03l63.92-63.92v19.96h4v-20.19l64.15,64.15h-21.74v4h21.95l-34.96,34.96h4.24l31.77-31.77v18.81h4
		V742.1l32.51,32.52h4.24l-34.96-34.96h19.2v-4h-18.99l63.94-63.94v19.98h4v-20.16l64.12,64.12h-22.03v4h22.24l-34.96,34.96h4.24
		l31.48-31.48v18.51h4v-18.52l31.48,31.48h4.24l-34.96-34.96h20.24v-4h-20.03l63.92-63.92v19.96h4v-20.19l64.15,64.15h-21.18v4
		h21.39l-34.96,34.96h4.24l32.33-32.34v19.37h4V742.1l32.52,32.52h4.24l-34.96-34.96h19.2v-4h-18.99l63.94-63.94v19.98h4v-20.16
		l64.12,64.12h-22.03v4h22.24l-34.96,34.96h4.24l31.48-31.48v18.51h4v-18.52l31.48,31.48h4.24l-34.96-34.96h20.24v-4h-20.03
		l63.92-63.92v19.96h4v-20.19l64.15,64.15h-21.74v4h21.95l-34.96,34.96h4.24l31.77-31.77v18.81h4V742.1l32.52,32.52h4.24
		l-34.96-34.96h19.2v-4h-18.99l63.94-63.94v19.98h4v-20.16l31.91,31.9v-4.24l-29.49-29.49h18.6v-4h-18.46l29.36-29.36v-4.24
		l-31.9,31.9v-20.29h-4v20.11l-64.11-64.11h19.17v-4h-19.03l63.98-63.98V551h4v-19.47l31.9,31.9v-4.24L1985.81,529h19.29v-4h-18.77
		l29.67-29.67v-4.24l-31.9,31.9V503h-4v19.81l-64.15-64.15h19.2v-4h-18.99l63.94-63.94v19.98h4v-20.16l31.9,31.9v-4.24l-29.49-29.49
		h18.6v-4h-18.46l29.36-29.36v-4.24l-31.9,31.9v-20.3h-4v20.11l-64.11-64.11h19.17v-4h-19.03l63.98-63.98v19.44h4v-19.62l31.9,31.9
		v-4.24l-30.03-30.03h19.14v-4h-18.77l29.67-29.67v-4.24l-31.9,31.9v-19.99h-4v19.81l-64.15-64.15h19.2v-4h-18.99l63.94-63.94v19.98
		h4v-20.16l31.9,31.9v-4.24l-29.49-29.49h18.6v-4h-18.46L2016,74.49v-4.24l-31.9,31.9v-20.3h-4v20.11l-64.11-64.11h19.17v-4h-19.03
		L1949.97,0h-4.24l-31.57,31.57V11.85h-4v18.98L1879.33,0h-4.24l33.85,33.85h-21.78v4h21.91l-64.32,64.32V81.85h-4v20.09
		l-64.09-64.09h20.2v-4h-20.07L1810.63,0h-4.24l-30.53,30.53V11.85h-4v18.69L1741.33,0h-4.24l33.85,33.85h-22.07v4h22.2l-64.3,64.29
		V81.85h-4v20.12l-64.11-64.12h19.17v-4h-19.03L1672.63,0h-4.24l-31.57,31.57V11.85h-4v19.54L1601.43,0h-4.24l33.85,33.85h-21.21v4
		h21.35l-64.32,64.32V81.85h-4v20.09l-64.09-64.09h20.2v-4h-20.07L1532.74,0h-4.24l-30.53,30.53V11.85h-4v18.69L1463.43,0h-4.24
		l33.85,33.85h-22.07v4h22.2l-64.3,64.29V81.85h-4v20.12l-64.11-64.12h19.17v-4h-19.03L1394.74,0h-4.24l-31.57,31.57V11.85h-4v18.98
		L1324.09,0h-4.24l33.85,33.85h-21.78v4h21.91l-64.32,64.32V81.85h-4v20.09l-64.09-64.09h20.2v-4h-20.07L1255.4,0h-4.24
		l-30.53,30.53V11.85h-4v18.69L1186.09,0h-4.24l33.85,33.85h-22.07v4h22.2l-64.29,64.29V81.85h-4v20.11l-64.11-64.11h19.17v-4
		h-19.03L1117.4,0h-4.24l-31.57,31.57V11.85h-4v21.08L1044.66,0h-4.24l33.85,33.85h-19.67v4h19.81l-64.32,64.32V81.85h-4v20.09
		l-64.09-64.09h20.21v-4h-20.07L975.97,0h-4.24l-30.53,30.53V11.85h-4v18.69L906.66,0h-4.24l33.85,33.85h-22.07v4h22.21
		l-64.29,64.29V81.85h-4v20.11l-64.11-64.11h19.17v-4h-19.03L837.97,0h-4.24l-31.57,31.57V11.85h-4v18.98L767.33,0h-4.24
		l33.85,33.85h-21.78v4h21.91l-64.32,64.32V81.85h-4v20.09l-64.09-64.09h20.21v-4h-20.07L698.63,0h-4.24l-30.53,30.53V11.85h-4
		v18.69L629.33,0h-4.24l33.85,33.85h-22.07v4h22.21l-64.29,64.29V81.85h-4v20.12l-64.11-64.12h19.17v-4h-19.03L560.63,0h-4.24
		l-31.57,31.57V11.85h-4v19.54L489.43,0h-4.24l33.85,33.85h-21.21v4h21.35l-64.32,64.32V81.85h-4v20.09l-64.09-64.09h20.2v-4h-20.07
		L420.74,0h-4.24l-30.53,30.53V11.85h-4v18.69L351.43,0h-4.24l33.85,33.85h-22.07v4h22.2l-64.3,64.29V81.85h-4v20.12l-64.11-64.12
		h19.17v-4h-19.03L282.74,0h-4.24l-31.57,31.57V11.85h-4v18.98L212.1,0h-4.24l33.85,33.85h-21.78v4h21.91l-64.32,64.32V81.85h-4
		v20.09l-64.09-64.09h20.21v-4h-20.07L143.4,0h-4.24l-30.53,30.53V11.85h-4v18.69L74.1,0h-4.24L103.7,33.85z M41.4,248.15h19.14v-4
		H41.77l62.86-62.86v18.51h4v-18.51l62.86,62.86h-20.98v4h21.34l-63.22,63.22v-18.69h-4v18.69L41.4,248.15z M177.51,270.15v-19.65
		l64.19,64.19h-21.78v4h21.91l-64.32,64.32v-20.32h-4v20.09l-64.09-64.09h20.21v-4h-20.07l63.96-63.96v19.42H177.51z M179.77,244.15
		L242.92,181v18.81h4v-19.55l63.9,63.9h-20.95v4h21.32l-64.26,64.26v-19.73h-4v18.98l-63.52-63.52h19.11v-4H179.77z M316.87,270.15
		v-19.62l64.16,64.16h-22.07v4h22.2l-64.3,64.29v-20.3h-4v20.12l-64.11-64.12h19.17v-4h-19.03l63.98-63.98v19.44L316.87,270.15
		L316.87,270.15z M319.1,244.15l62.86-62.86v18.51h4v-18.51l62.86,62.86h-20.98v4h21.34l-63.23,63.23v-18.69h-4v18.69l-63.23-63.23
		h19.14v-4L319.1,244.15L319.1,244.15z M454.85,270.15v-19.65l64.19,64.19h-21.21v4h21.35l-64.32,64.32v-20.32h-4v20.09
		l-64.09-64.09h20.2v-4h-20.07l63.96-63.96v19.42H454.85z M457.1,244.15l63.72-63.72v19.37h4v-19.55l63.9,63.9h-20.95v4h21.32
		l-64.26,64.26v-19.73h-4v19.55l-64.08-64.08h19.11v-4H457.1z M594.77,270.15v-19.62l64.16,64.16h-22.07v4h22.21l-64.29,64.29v-20.3
		h-4v20.12l-64.11-64.12h19.17v-4h-19.03l63.98-63.98v19.44L594.77,270.15L594.77,270.15z M597,244.15l62.86-62.86v18.51h4v-18.51
		l62.86,62.86h-20.98v4h21.34l-63.22,63.23v-18.69h-4v18.69l-63.22-63.23h19.14v-4L597,244.15L597,244.15z M732.74,270.15v-19.65
		l64.19,64.19h-21.78v4h21.91l-64.32,64.32v-20.32h-4v20.09l-64.09-64.09h20.21v-4h-20.07l63.96-63.96v19.42H732.74z M735,244.15
		L798.15,181v18.81h4v-19.55l63.9,63.9H845.1v4h21.32l-64.26,64.26v-19.73h-4v18.98l-63.52-63.52h19.11v-4H735z M872.1,270.15
		v-19.62l64.16,64.16h-22.07v4h22.21l-64.29,64.3v-20.3h-4v20.11l-64.11-64.11h19.17v-4h-19.03l63.98-63.98v19.44H872.1z
		 M874.33,244.15l62.86-62.86v18.51h4v-18.51l62.86,62.86h-20.98v4h21.34l-63.23,63.22v-18.69h-4v18.69l-63.22-63.23h19.14v-4
		L874.33,244.15L874.33,244.15z M1010.08,270.15V250.5l64.19,64.19h-19.67v4h19.81l-64.32,64.32v-20.32h-4v20.09l-64.09-64.09h20.21
		v-4h-20.07l63.96-63.96v19.42L1010.08,270.15L1010.08,270.15z M1012.33,244.15l65.26-65.26v20.91h4v-19.55l63.9,63.9h-20.95v4
		h21.31l-64.26,64.26v-19.73h-4v21.08l-65.62-65.62h19.11v-4L1012.33,244.15L1012.33,244.15z M1151.54,270.15v-19.62l64.16,64.16
		h-22.07v4h22.2l-64.29,64.3v-20.3h-4v20.11l-64.11-64.11h19.17v-4h-19.03l63.98-63.98v19.44H1151.54z M1153.77,244.15l62.86-62.86
		v18.51h4v-18.51l62.86,62.86h-20.98v4h21.34l-63.22,63.23v-18.69h-4v18.69l-63.22-63.23h19.14v-4L1153.77,244.15L1153.77,244.15z
		 M1289.51,270.15v-19.65l64.19,64.19h-21.78v4h21.91l-64.32,64.32v-20.32h-4v20.09l-64.09-64.09h20.2v-4h-20.07l63.95-63.96v19.42
		H1289.51z M1291.77,244.15l63.16-63.16v18.81h4v-19.55l63.9,63.9h-20.95v4h21.31l-64.26,64.26v-19.73h-4v18.98l-63.52-63.52h19.11
		v-4L1291.77,244.15L1291.77,244.15z M1428.87,270.15v-19.62l64.16,64.16h-22.07v4h22.2l-64.3,64.29v-20.3h-4v20.12l-64.11-64.12
		h19.17v-4h-19.03l63.98-63.98v19.44L1428.87,270.15L1428.87,270.15z M1431.1,244.15l62.86-62.86v18.51h4v-18.51l62.86,62.86h-20.98
		v4h21.34l-63.22,63.23v-18.69h-4v18.69l-63.22-63.23h19.14v-4L1431.1,244.15L1431.1,244.15z M1566.85,270.15v-19.65l64.19,64.19
		h-21.21v4h21.35l-64.32,64.32v-20.32h-4v20.09l-64.09-64.09h20.2v-4h-20.07l63.96-63.96v19.42H1566.85z M1569.1,244.15l63.72-63.72
		v19.37h4v-19.55l63.9,63.9h-20.95v4h21.31l-64.26,64.26v-19.73h-4v19.55l-64.08-64.08h19.11v-4H1569.1z M1706.77,270.15v-19.62
		l64.16,64.16h-22.07v4h22.2l-64.3,64.29v-20.3h-4v20.12l-64.11-64.12h19.17v-4h-19.03l63.98-63.98v19.44L1706.77,270.15
		L1706.77,270.15z M1709,244.15l62.86-62.86v18.51h4v-18.51l62.86,62.86h-20.98v4h21.34l-63.22,63.23v-18.69h-4v18.69l-63.22-63.23
		h19.14v-4L1709,244.15L1709,244.15z M1844.74,270.15v-19.65l64.19,64.19h-21.78v4h21.91l-64.32,64.32v-20.32h-4v20.09l-64.09-64.09
		h20.2v-4h-20.07l63.96-63.96v19.42H1844.74z M1909.1,458.65l-64.36,64.36V503h-4v19.78l-64.13-64.13h20.24v-4h-20.03l63.92-63.92
		v19.96h4v-20.19l64.15,64.15h-21.74v4H1909.1z M1771.86,573.69v18.69L1708.48,529h19.29v-4H1709l62.86-62.86v18.51h4v-18.52
		l62.86,62.86h-20.98v4h21.49l-63.38,63.38v-18.69L1771.86,573.69L1771.86,573.69z M1702.77,503v19.81l-64.15-64.15h19.2v-4h-18.99
		l63.94-63.94v19.98h4v-20.16l64.12,64.12h-22.03v4h22.24l-64.33,64.33V503H1702.77z M1632.82,573.69v19.54L1568.58,529h19.26v-4
		h-18.74l63.72-63.72v19.37h4V461.1l63.9,63.9h-20.95v4h21.47l-64.42,64.42v-19.72H1632.82z M1562.85,503v19.78l-64.13-64.13h20.24
		v-4h-20.03l63.92-63.92v19.96h4v-20.19l64.15,64.15h-21.18v4h21.39l-64.36,64.36V503H1562.85z M1493.96,573.69v18.69L1430.58,529
		h19.29v-4h-18.77l62.86-62.86v18.51h4v-18.52l62.86,62.86h-20.98v4h21.49l-63.38,63.38v-18.69L1493.96,573.69L1493.96,573.69z
		 M1424.87,503v19.81l-64.15-64.15h19.2v-4h-18.99l63.94-63.94v19.98h4v-20.16l64.12,64.12h-22.03v4h22.24l-64.33,64.33V503H1424.87
		z M1354.92,573.69v18.98L1291.25,529h19.26v-4h-18.74l63.16-63.16v18.81h4V461.1l63.9,63.9h-20.95v4h21.47l-64.42,64.42v-19.72
		H1354.92z M1285.51,503v19.78l-64.13-64.13h20.24v-4h-20.03l63.92-63.92v19.96h4v-20.19l64.15,64.15h-21.74v4h21.95l-64.36,64.36
		V503H1285.51z M1216.63,573.69v18.69L1153.25,529h19.29v-4h-18.77l62.86-62.86v18.51h4v-18.52l62.86,62.86h-20.98v4h21.49
		l-63.38,63.38v-18.69H1216.63z M1147.54,503v19.81l-64.15-64.15h19.2v-4h-18.99l63.94-63.94v19.98h4v-20.16l64.12,64.12h-22.03v4
		h22.24l-64.33,64.33V503H1147.54z M1077.59,573.69v21.08L1011.81,529h19.26v-4h-18.74l65.26-65.26v20.91h4V461.1l63.9,63.9h-20.95
		v4h21.47l-64.42,64.42v-19.72H1077.59z M1006.08,503v19.78l-64.13-64.13h20.24v-4h-20.03l63.92-63.92v19.95h4V390.5l64.15,64.15
		h-19.64v4h19.85l-64.36,64.36V503H1006.08z M937.19,573.69v18.69L873.81,529h19.29v-4h-18.77l62.86-62.86v18.51h4v-18.52
		l62.86,62.86h-20.98v4h21.49l-63.38,63.38v-18.69H937.19z M868.1,503v19.81l-64.15-64.15h19.21v-4h-18.99l63.94-63.94v19.98h4
		v-20.16l64.12,64.12h-22.03v4h22.24l-64.33,64.33V503H868.1z M798.15,573.69v18.98L734.48,529h19.26v-4H735l63.15-63.15v18.81h4
		V461.1l63.9,63.9H845.1v4h21.47l-64.42,64.42v-19.72H798.15z M728.74,503v19.78l-64.13-64.13h20.24v-4h-20.03l63.92-63.92v19.96h4
		v-20.19l64.15,64.15h-21.74v4h21.95l-64.36,64.36V503H728.74z M659.86,573.69v18.69L596.48,529h19.29v-4H597l62.86-62.86v18.51h4
		v-18.52L726.72,525h-20.98v4h21.49l-63.38,63.38v-18.69L659.86,573.69L659.86,573.69z M590.77,503v19.81l-64.15-64.15h19.2v-4
		h-18.99l63.94-63.94v19.98h4v-20.16l64.12,64.12h-22.03v4h22.24l-64.33,64.33V503H590.77z M520.82,573.69v19.54L456.58,529h19.26
		v-4H457.1l63.72-63.72v19.37h4V461.1l63.9,63.9h-20.95v4h21.47l-64.42,64.42v-19.72H520.82z M450.85,503v19.78l-64.13-64.13h20.24
		v-4h-20.03l63.92-63.92v19.96h4v-20.19L519,454.65h-21.18v4h21.38l-64.36,64.36V503H450.85z M381.96,573.69v18.69L318.58,529h19.29
		v-4H319.1l62.86-62.86v18.51h4v-18.52L448.82,525h-20.98v4h21.49l-63.38,63.38v-18.69L381.96,573.69L381.96,573.69z M312.87,503
		v19.81l-64.15-64.15h19.2v-4h-18.99l63.94-63.94v19.98h4v-20.16l64.12,64.12h-22.03v4h22.24l-64.33,64.33V503H312.87z
		 M242.92,573.69v18.98L179.25,529h19.26v-4h-18.74l63.15-63.16v18.81h4V461.1l63.9,63.9h-20.95v4h21.47l-64.42,64.42v-19.72H242.92
		z M173.51,503v19.78l-64.13-64.13h20.24v-4H109.6l63.92-63.92v19.96h4v-20.19l64.15,64.15h-21.74v4h21.95l-64.36,64.36V503H173.51z
		 M180.08,384.69l62.85-62.85v18.85h4V321.1l63.59,63.59h-20.64v4h20.78l-63.73,63.73v-19.76h-4v19.02l-62.98-62.98h18.57v-4H180.08
		z M319.41,384.69l62.55-62.55v18.55h4v-18.55l62.55,62.55h-20.67v4h20.8l-62.69,62.69v-18.73h-4v18.73l-62.69-62.69h18.6v-4H319.41
		z M457.41,384.69l63.41-63.41v19.41h4V321.1l63.59,63.59h-20.64v4h20.78l-63.72,63.73v-19.76h-4v19.58l-63.55-63.54h18.57v-4
		L457.41,384.69L457.41,384.69z M597.31,384.69l62.55-62.55v18.55h4v-18.55l62.55,62.55h-20.67v4h20.8l-62.69,62.69v-18.73h-4v18.72
		l-62.69-62.69h18.6v-4L597.31,384.69L597.31,384.69z M735.31,384.69l62.85-62.85v18.85h4V321.1l63.59,63.59H845.1v4h20.78
		l-63.72,63.73v-19.76h-4v19.02l-62.98-62.98h18.57v-4H735.31z M874.64,384.69l62.55-62.55v18.55h4v-18.55l62.55,62.55h-20.67v4
		h20.8l-62.69,62.69v-18.73h-4v18.73l-62.69-62.69h18.6v-4L874.64,384.69L874.64,384.69z M1012.64,384.69l64.95-64.95v20.95h4V321.1
		l63.59,63.59h-20.64v4h20.78l-63.72,63.73v-19.76h-4v21.12l-65.08-65.08h18.57v-4L1012.64,384.69L1012.64,384.69z M1154.08,384.69
		l62.55-62.55v18.55h4v-18.55l62.55,62.55h-20.67v4h20.8l-62.69,62.69v-18.73h-4v18.73l-62.69-62.69h18.6v-4L1154.08,384.69
		L1154.08,384.69z M1292.08,384.69l62.85-62.85v18.85h4V321.1l63.59,63.59h-20.64v4h20.78l-63.72,63.73v-19.76h-4v19.02
		l-62.98-62.98h18.57v-4L1292.08,384.69L1292.08,384.69z M1431.41,384.69l62.55-62.55v18.55h4v-18.55l62.55,62.55h-20.67v4h20.8
		l-62.69,62.69v-18.73h-4v18.72l-62.69-62.69h18.6v-4L1431.41,384.69L1431.41,384.69z M1569.41,384.69l63.41-63.41v19.41h4V321.1
		l63.59,63.59h-20.64v4h20.78l-63.72,63.73v-19.76h-4v19.58l-63.55-63.54h18.57v-4L1569.41,384.69L1569.41,384.69z M1709.31,384.69
		l62.55-62.55v18.55h4v-18.55l62.55,62.55h-20.67v4h20.8l-62.69,62.69v-18.73h-4v18.72l-62.69-62.69h18.6v-4L1709.31,384.69
		L1709.31,384.69z M41.94,388.69h18.6v-4H42.08l62.55-62.55v18.55h4v-18.55l62.55,62.55h-20.67v4h20.8l-62.69,62.69v-18.73h-4v18.72
		L41.94,388.69z M41.25,529h19.29v-4H41.77l62.86-62.86v18.51h4v-18.52L171.49,525h-20.98v4h21.49l-63.38,63.38v-18.69h-4v18.69
		L41.25,529z M108.63,732.38v-18.72h-4v18.72l-62.69-62.69h18.6v-4H42.08l62.55-62.55v18.55h4v-18.55l62.55,62.55h-20.67v4h20.8
		L108.63,732.38z M173.51,643.69v20.09l-64.09-64.09h20.2v-4h-20.07l63.96-63.96V551h4v-19.49l64.19,64.19h-21.78v4h21.91
		l-64.32,64.32v-20.32L173.51,643.69L173.51,643.69z M246.92,733.42v-19.76h-4v19.02l-62.98-62.98h18.57v-4h-18.44l62.85-62.85
		v18.85h4V602.1l63.59,63.59h-20.64v4h20.78L246.92,733.42z M312.87,643.69v20.12l-64.11-64.12h19.17v-4h-19.03l63.98-63.98V551h4
		v-19.47l64.16,64.16h-22.07v4h22.2l-64.29,64.29v-20.29L312.87,643.69L312.87,643.69z M385.96,732.38v-18.72h-4v18.72l-62.69-62.69
		h18.6v-4h-18.46l62.55-62.55v18.55h4v-18.55l62.55,62.55h-20.67v4h20.8L385.96,732.38z M450.85,643.69v20.09l-64.09-64.09h20.2v-4
		h-20.07l63.96-63.96V551h4v-19.49l64.19,64.19h-21.21v4h21.35l-64.32,64.32v-20.32L450.85,643.69L450.85,643.69z M524.82,733.42
		v-19.76h-4v19.58l-63.55-63.54h18.57v-4h-18.44l63.41-63.41v19.41h4V602.1l63.59,63.59h-20.64v4h20.78L524.82,733.42z
		 M590.77,643.69v20.12l-64.11-64.12h19.17v-4h-19.03l63.98-63.98V551h4v-19.47l64.16,64.16h-22.07v4h22.21l-64.29,64.29v-20.29
		L590.77,643.69L590.77,643.69z M663.86,732.38v-18.72h-4v18.72l-62.69-62.69h18.6v-4h-18.46l62.55-62.55v18.55h4v-18.55
		l62.55,62.55h-20.67v4h20.8L663.86,732.38z M728.74,643.69v20.09l-64.09-64.09h20.2v-4h-20.07l63.96-63.96V551h4v-19.49
		l64.19,64.19h-21.78v4h21.91l-64.32,64.32v-20.32L728.74,643.69L728.74,643.69z M802.15,733.42v-19.76h-4v19.02l-62.98-62.98h18.57
		v-4H735.3l62.85-62.85v18.85h4V602.1l63.59,63.59H845.1v4h20.78L802.15,733.42z M868.1,643.69v20.11l-64.11-64.11h19.17v-4h-19.03
		l63.98-63.98V551h4v-19.47l64.16,64.16h-22.07v4h22.21l-64.29,64.29v-20.29H868.1z M941.19,732.38v-18.72h-4v18.72l-62.69-62.69
		h18.6v-4h-18.46l62.55-62.55v18.55h4v-18.55l62.55,62.55h-20.67v4h20.8L941.19,732.38z M1006.08,643.69v20.09l-64.09-64.09h20.21
		v-4h-20.07l63.96-63.96V551h4v-19.49l64.19,64.19h-19.67v4h19.81l-64.32,64.32v-20.32H1006.08z M1081.59,733.42v-19.76h-4v21.12
		l-65.08-65.08h18.57v-4h-18.44l64.95-64.95v20.95h4V602.1l63.59,63.59h-20.64v4h20.78L1081.59,733.42z M1147.54,643.69v20.11
		l-64.11-64.11h19.17v-4h-19.03l63.98-63.98V551h4v-19.47l64.16,64.16h-22.07v4h22.2l-64.29,64.29v-20.29H1147.54z M1220.63,732.38
		v-18.72h-4v18.72l-62.69-62.69h18.6v-4h-18.46l62.55-62.55v18.55h4v-18.55l62.55,62.55h-20.67v4h20.8L1220.63,732.38z
		 M1285.51,643.69v20.09l-64.09-64.09h20.2v-4h-20.07l63.96-63.96V551h4v-19.49l64.19,64.19h-21.78v4h21.91l-64.32,64.32v-20.32
		L1285.51,643.69L1285.51,643.69z M1358.92,733.42v-19.76h-4v19.02l-62.98-62.98h18.57v-4h-18.44l62.85-62.85v18.85h4V602.1
		l63.59,63.59h-20.64v4h20.78L1358.92,733.42z M1424.87,643.69v20.12l-64.11-64.12h19.17v-4h-19.03l63.98-63.98V551h4v-19.47
		l64.16,64.16h-22.07v4h22.2l-64.3,64.29v-20.29L1424.87,643.69L1424.87,643.69z M1497.96,732.38v-18.72h-4v18.72l-62.69-62.69h18.6
		v-4h-18.46l62.55-62.55v18.55h4v-18.55l62.55,62.55h-20.67v4h20.8L1497.96,732.38z M1562.85,643.69v20.09l-64.09-64.09h20.2v-4
		h-20.07l63.96-63.96V551h4v-19.49l64.19,64.19h-21.21v4h21.35l-64.32,64.32v-20.32L1562.85,643.69L1562.85,643.69z M1636.82,733.42
		v-19.76h-4v19.58l-63.55-63.54h18.57v-4h-18.44l63.41-63.41v19.41h4V602.1l63.59,63.59h-20.64v4h20.78L1636.82,733.42z
		 M1702.77,643.69v20.12l-64.11-64.12h19.17v-4h-19.03l63.98-63.98V551h4v-19.47l64.16,64.16h-22.07v4h22.2l-64.3,64.29v-20.29
		L1702.77,643.69L1702.77,643.69z M1775.86,732.38v-18.72h-4v18.72l-62.69-62.69h18.6v-4h-18.46l62.55-62.55v18.55h4v-18.55
		l62.55,62.55h-20.67v4h20.8L1775.86,732.38z M1840.74,643.69v20.09l-64.09-64.09h20.2v-4h-20.07l63.96-63.96V551h4v-19.49
		l64.19,64.19h-21.78v4h21.91l-64.32,64.32v-20.32L1840.74,643.69L1840.74,643.69z M1977.74,665.69h-20.64v4h20.78l-63.73,63.72
		v-19.76h-4v19.02l-62.98-62.98h18.57v-4h-18.44l62.85-62.85v18.85h4V602.1L1977.74,665.69z M1978.05,525h-20.95v4h21.47
		l-64.42,64.42v-19.72h-4v18.98L1846.48,529h19.26v-4H1847l63.16-63.15v18.81h4V461.1L1978.05,525z M1977.74,384.69h-20.64v4h20.78
		l-63.73,63.73v-19.76h-4v19.02l-62.98-62.98h18.57v-4h-18.44l62.85-62.85v18.85h4V321.1L1977.74,384.69z M1978.05,244.15h-20.95v4
		h21.31l-64.26,64.26v-19.73h-4v18.98l-63.52-63.52h19.11v-4H1847l63.16-63.15v18.81h4v-19.55L1978.05,244.15z M1847.31,103.85
		L1910.15,41v18.85h4V40.26l63.59,63.59h-20.64v4h20.78l-63.73,63.72v-19.76h-4v19.02l-62.98-62.98h18.57v-4L1847.31,103.85
		L1847.31,103.85z M1844.74,129.85v-20.19l64.15,64.15h-21.74v4h21.95l-64.36,64.36v-20.01h-4v19.78l-64.13-64.13h20.24v-4h-20.03
		l63.92-63.92v19.96L1844.74,129.85L1844.74,129.85z M1709.31,103.85l62.55-62.55v18.55h4V41.29l62.55,62.55h-20.67v4h20.8
		l-62.69,62.69v-18.73h-4v18.73l-62.69-62.69h18.6v-4L1709.31,103.85L1709.31,103.85z M1706.77,129.85v-20.16l64.12,64.12h-22.03v4
		h22.24l-64.33,64.33v-19.99h-4v19.81l-64.15-64.15h19.2v-4h-18.99l63.94-63.94v19.98L1706.77,129.85L1706.77,129.85z
		 M1569.41,103.85l63.41-63.41v19.41h4V40.26l63.59,63.59h-20.64v4h20.78l-63.72,63.72v-19.76h-4v19.58l-63.55-63.54h18.57v-4
		C1587.85,103.85,1569.41,103.85,1569.41,103.85z M1566.85,129.85v-20.19l64.15,64.15h-21.17v4h21.39l-64.36,64.36v-20.01h-4v19.78
		l-64.13-64.13h20.24v-4h-20.03l63.92-63.92v19.96L1566.85,129.85L1566.85,129.85z M1431.41,103.85l62.55-62.55v18.55h4V41.29
		l62.55,62.55h-20.67v4h20.8l-62.69,62.69v-18.73h-4v18.73l-62.69-62.69h18.6v-4L1431.41,103.85L1431.41,103.85z M1428.87,129.85
		v-20.16l64.12,64.12h-22.03v4h22.24l-64.33,64.33v-19.99h-4v19.81l-64.15-64.15h19.2v-4h-18.99l63.94-63.94v19.98L1428.87,129.85
		L1428.87,129.85z M1292.08,103.85L1354.92,41v18.85h4V40.26l63.59,63.59h-20.64v4h20.78l-63.72,63.72v-19.76h-4v19.02l-62.98-62.98
		h18.57v-4L1292.08,103.85L1292.08,103.85z M1289.51,129.85v-20.19l64.15,64.15h-21.74v4h21.95l-64.36,64.36v-20.01h-4v19.78
		l-64.13-64.13h20.24v-4h-20.03l63.92-63.92v19.96L1289.51,129.85L1289.51,129.85z M1154.08,103.85l62.55-62.55v18.55h4V41.29
		l62.55,62.55h-20.67v4h20.8l-62.69,62.69v-18.73h-4v18.73l-62.69-62.69h18.6v-4L1154.08,103.85L1154.08,103.85z M1151.54,129.85
		v-20.16l64.12,64.12h-22.03v4h22.24l-64.33,64.33v-19.99h-4v19.81l-64.15-64.15h19.2v-4h-18.99l63.94-63.94v19.98L1151.54,129.85
		L1151.54,129.85z M1012.64,103.85l64.95-64.95v20.95h4V40.25l63.59,63.59h-20.64v4h20.78l-63.72,63.73v-19.76h-4v21.12
		l-65.08-65.08h18.57v-4C1031.08,103.85,1012.64,103.85,1012.64,103.85z M1010.08,129.85v-20.19l64.15,64.15h-19.64v4h19.85
		l-64.36,64.36v-20.01h-4v19.78l-64.13-64.13h20.24v-4h-20.03l63.92-63.92v19.95L1010.08,129.85L1010.08,129.85z M874.64,103.85
		l62.55-62.55v18.55h4V41.29l62.55,62.55h-20.67v4h20.8l-62.69,62.69v-18.73h-4v18.73l-62.69-62.69h18.6v-4L874.64,103.85
		L874.64,103.85z M872.1,129.85v-20.16l64.12,64.12h-22.03v4h22.24l-64.33,64.33v-19.99h-4v19.81l-64.15-64.15h19.21v-4h-18.99
		l63.94-63.94v19.98H872.1z M735.31,103.85L798.15,41v18.85h4V40.26l63.59,63.59H845.1v4h20.78l-63.72,63.72v-19.76h-4v19.02
		l-62.98-62.98h18.57v-4L735.31,103.85L735.31,103.85z M732.74,129.85v-20.19l64.15,64.15h-21.74v4h21.95l-64.36,64.36v-20.01h-4
		v19.78l-64.13-64.13h20.24v-4h-20.03l63.92-63.92v19.96L732.74,129.85L732.74,129.85z M597.31,103.85l62.55-62.55v18.55h4V41.29
		l62.55,62.55h-20.67v4h20.8l-62.69,62.69v-18.73h-4v18.73l-62.69-62.69h18.6v-4L597.31,103.85L597.31,103.85z M594.77,129.85
		v-20.16l64.12,64.12h-22.03v4h22.24l-64.33,64.33v-19.99h-4v19.81l-64.15-64.15h19.21v-4h-18.99l63.94-63.94v19.98L594.77,129.85
		L594.77,129.85z M457.41,103.85l63.41-63.41v19.41h4V40.26l63.59,63.59h-20.64v4h20.78l-63.72,63.72v-19.76h-4v19.58l-63.55-63.54
		h18.57v-4C475.85,103.85,457.41,103.85,457.41,103.85z M454.85,129.85v-20.19l64.15,64.15h-21.17v4h21.39l-64.36,64.36v-20.01h-4
		v19.78l-64.13-64.13h20.24v-4h-20.03l63.92-63.92v19.96L454.85,129.85L454.85,129.85z M319.41,103.85l62.55-62.55v18.55h4V41.29
		l62.55,62.55h-20.67v4h20.8l-62.69,62.69v-18.73h-4v18.73l-62.69-62.69h18.6v-4C337.87,103.85,319.41,103.85,319.41,103.85z
		 M316.87,129.85v-20.16l64.12,64.12h-22.03v4h22.24l-64.33,64.33v-19.99h-4v19.81l-64.15-64.15h19.2v-4h-18.99l63.94-63.94v19.98
		L316.87,129.85L316.87,129.85z M180.08,103.85L242.92,41v18.85h4V40.26l63.59,63.59h-20.64v4h20.78l-63.73,63.72v-19.76h-4v19.02
		l-62.98-62.98h18.57v-4C198.51,103.85,180.08,103.85,180.08,103.85z M177.51,129.85v-20.19l64.15,64.15h-21.74v4h21.95
		l-64.36,64.36v-20.01h-4v19.78l-64.13-64.13h20.24v-4H109.6l63.92-63.92v19.96L177.51,129.85L177.51,129.85z M108.63,59.85V41.29
		l62.55,62.55h-20.67v4h20.8l-62.69,62.69v-18.73h-4v18.73l-62.69-62.69h18.6v-4H42.08l62.55-62.55v18.55L108.63,59.85L108.63,59.85
		z"/>
</g>
</svg>
