<svg xmlns="http://www.w3.org/2000/svg" width="297.781" height="232.444" viewBox="0 0 297.781 232.444">
  <g id="Group_370" data-name="Group 370" transform="translate(296.721 1.072) rotate(90)" opacity="0.5">
    <path id="Path_264" data-name="Path 264" d="M51.286,53.473,0,0V13.972l37.314,39.5Z" transform="translate(0.557 241.615)" fill="#949693"/>
    <line id="Line_195" data-name="Line 195" x1="12.399" y1="12.643" transform="translate(0.464 282.677)" fill="none" stroke="#949693" stroke-width="4"/>
    <line id="Line_196" data-name="Line 196" x1="72.715" y1="74.352" transform="translate(0 220.968)" fill="none" stroke="#949693" stroke-width="3"/>
    <line id="Line_199" data-name="Line 199" x1="120.273" y1="119.126" transform="translate(0 175.499)" fill="none" stroke="#949693" stroke-width="3"/>
    <line id="Line_200" data-name="Line 200" x1="61.709" y1="61.709" transform="translate(84.083 232.916)" fill="none" stroke="#949693" stroke-width="3"/>
    <line id="Line_202" data-name="Line 202" x1="61.709" y1="61.709" transform="translate(112.153 232.916)" fill="none" stroke="#949693" stroke-width="3"/>
    <line id="Line_204" data-name="Line 204" x1="40.973" y1="40.83" transform="translate(161.888 253.795)" fill="none" stroke="#949693" stroke-width="3"/>
    <line id="Line_205" data-name="Line 205" x1="30.373" y1="30.622" transform="translate(199.934 264.002)" fill="none" stroke="#949693" stroke-width="3"/>
    <line id="Line_216" data-name="Line 216" x1="69.441" y1="65.769" transform="translate(0 92.911)" fill="none" stroke="#949693" stroke-width="3"/>
    <line id="Line_201" data-name="Line 201" x1="52.069" y1="49.993" transform="translate(0 149.98)" fill="none" stroke="#949693" stroke-width="3"/>
    <line id="Line_203" data-name="Line 203" x1="80.139" y1="77.832" transform="translate(0 122.141)" fill="none" stroke="#949693" stroke-width="3"/>
    <line id="Line_197" data-name="Line 197" x1="58.518" y1="58.298" transform="translate(0 200.089)" fill="none" stroke="#949693" stroke-width="3"/>
    <line id="Line_198" data-name="Line 198" x1="18.095" y1="18.095" transform="translate(76.659 276.993)" fill="none" stroke="#949693" stroke-width="3"/>
    <line id="Line_218" data-name="Line 218" x1="97.564" y1="97.551" transform="translate(1.263)" fill="none" stroke="#949693" stroke-width="3"/>
  </g>
</svg>
